<svg width="82" height="81" viewBox="0 0 82 81" fill="none" xmlns="http://www.w3.org/2000/svg">
<path d="M18.5572 20.5745C19.8142 20.5745 20.8332 18.7813 20.8332 16.5694C20.8332 14.3575 19.8142 12.5643 18.5572 12.5643C17.3002 12.5643 16.2812 14.3575 16.2812 16.5694C16.2812 18.7813 17.3002 20.5745 18.5572 20.5745Z" fill="white"/>
<path d="M35.0548 20.5745C36.3118 20.5745 37.3308 18.7813 37.3308 16.5694C37.3308 14.3575 36.3118 12.5643 35.0548 12.5643C33.7978 12.5643 32.7788 14.3575 32.7788 16.5694C32.7788 18.7813 33.7978 20.5745 35.0548 20.5745Z" fill="white"/>
<path d="M17.6504 24.8766C19.2404 28.5055 22.7429 31.0249 26.808 31.0249C30.8731 31.0249 34.3756 28.5055 35.9656 24.8766" stroke="white" stroke-width="3" stroke-miterlimit="10"/>
<path d="M44.7882 2H8.8279C5.05675 2 2 5.05675 2 8.82791V33.6644C2 37.4356 5.05675 40.4923 8.8279 40.4923C10.203 40.4923 11.3157 41.6082 11.3157 42.9801V49.7227C11.3157 51.3316 13.2218 52.182 14.4167 51.1072L25.0885 41.5292C25.8313 40.8622 26.7954 40.4923 27.7943 40.4923H44.7819C48.553 40.4923 51.6098 37.4356 51.6098 33.6644V8.82791C51.6162 5.05675 48.5594 2 44.7882 2Z" stroke="white" stroke-width="3" stroke-miterlimit="10"/>
<path d="M51.6163 29.397H73.1779C76.9491 29.397 80.0058 32.4537 80.0058 36.2249V61.0614C80.0058 64.8326 76.9491 67.8893 73.1779 67.8893C71.8029 67.8893 70.6902 69.0052 70.6902 70.3771V77.1196C70.6902 78.7286 68.784 79.5789 67.5891 78.5042L56.9174 68.9261C56.1745 68.2592 55.2104 67.8893 54.2115 67.8893H37.2239C33.4528 67.8893 30.396 64.8326 30.396 61.0614V40.4923" stroke="white" stroke-width="3" stroke-miterlimit="10"/>
<path d="M44.4153 44.2288H48.9641C49.7955 44.2288 50.4687 44.8863 50.4687 45.6987V60.5304C50.4687 61.3428 49.7955 62.0003 48.9641 62.0003H44.4153C43.584 62.0003 42.9106 61.3428 42.9106 60.5304V45.6987C42.9106 44.8863 43.584 44.2288 44.4153 44.2288Z" stroke="white" stroke-width="3" stroke-miterlimit="10"/>
<path d="M67.039 60.1257C67.039 59.0921 66.2014 58.2512 65.1645 58.2512H63.9475H65.5913C66.8273 58.2512 67.8261 57.2492 67.8261 56.0164C67.8261 54.7804 66.8241 53.7815 65.5913 53.7815H64.6303H66.5333C67.7566 53.7815 68.7492 52.7889 68.7492 51.5656C68.7492 50.3422 67.7566 49.3497 66.5333 49.3497H65.0918H65.939C67.1686 49.3497 68.1612 48.3539 68.1612 47.1274C68.1612 45.8978 67.1655 44.9052 65.939 44.9052H60.1574C59.6642 44.9052 59.3481 44.3868 59.5726 43.9474L61.3586 40.4513C61.8011 39.582 62.8316 36.4525 60.8749 35.1407C58.1722 33.3294 56.7245 35.9246 56.4115 36.6991L54.7899 40.0119C54.714 40.2015 54.5907 40.3691 54.4295 40.4987L51.8975 42.5565C50.9903 43.2931 50.4624 44.4026 50.4624 45.569V59.4524C50.4624 60.8623 51.6035 62.0034 53.0134 62.0034H65.1614C66.2014 62.0003 67.039 61.1594 67.039 60.1257Z" stroke="white" stroke-width="3" stroke-miterlimit="10"/>
</svg>
