<svg width="80" height="81" viewBox="0 0 80 81" fill="none" xmlns="http://www.w3.org/2000/svg">
<path d="M17.732 46.7164C17.4443 46.7417 17.1503 46.7544 16.8532 46.7544C16.5561 46.7544 16.2652 46.7417 15.9744 46.7164L14.239 50.0766C13.8818 50.7689 14.1695 51.733 14.7827 51.8848C15.2474 52.0017 15.9112 52.0839 16.8532 52.0839C17.7984 52.0839 18.459 52.0017 18.9237 51.8848C19.537 51.7299 19.8246 50.7689 19.4674 50.0766L17.732 46.7164Z" stroke="white" stroke-width="3" stroke-miterlimit="10"/>
<path d="M17.1663 52.084V54.0597C17.1663 54.8879 17.0398 55.7129 16.7869 56.5032L16.2938 58.0552C15.6584 60.0625 15.8291 62.2373 16.7711 64.1182C17.8111 66.1982 17.906 68.6227 17.0335 70.7754L16.395 72.3528C15.69 74.0882 15.611 76.0164 16.1705 77.8056L16.8565 80.0025" stroke="white" stroke-width="3" stroke-miterlimit="10"/>
<path d="M63.0715 2C48.2429 2 48.0848 12.4347 48.2429 17.3786C48.4199 22.8757 53.5914 36.3766 63.0715 36.3766C72.5515 36.3766 77.7262 22.8757 77.9 17.3786C78.0581 12.4378 77.9 2 63.0715 2Z" stroke="white" stroke-width="3" stroke-miterlimit="10"/>
<path d="M63.9473 36.3386C63.6596 36.3639 63.3657 36.3766 63.0685 36.3766C62.7714 36.3766 62.4806 36.3639 62.1898 36.3386L60.4543 39.6988C60.0971 40.3911 60.3848 41.3552 60.998 41.507C61.4627 41.6239 62.1265 41.7061 63.0685 41.7061C64.0137 41.7061 64.6744 41.6239 65.139 41.507C65.7523 41.3521 66.0399 40.3911 65.6827 39.6988L63.9473 36.3386Z" stroke="white" stroke-width="3" stroke-miterlimit="10"/>
<path d="M63.3811 41.7094V43.685C63.3811 44.5132 63.2547 45.3383 63.0018 46.1285L62.5087 47.6806C61.8733 49.6879 62.044 51.8627 62.986 53.7435C64.026 55.8235 64.1208 58.2481 63.2484 60.4007L62.6098 61.9781C61.9049 63.7135 61.8259 65.6418 62.3854 67.431L63.0713 69.6279" stroke="white" stroke-width="3" stroke-miterlimit="10"/>
<path d="M37.0083 57.9762C36.7207 58.0015 36.4267 58.0141 36.1296 58.0141C35.8324 58.0141 35.5416 58.0015 35.2508 57.9762L33.5154 61.3364C33.1582 62.0287 33.4458 62.9928 34.0591 63.1445C34.5237 63.2615 35.1876 63.3437 36.1296 63.3437C37.0747 63.3437 37.7354 63.2615 38.2001 63.1445C38.8133 62.9897 39.101 62.0287 38.7438 61.3364L37.0083 57.9762Z" stroke="white" stroke-width="3" stroke-miterlimit="10"/>
<path d="M36.4421 63.3438V65.3226C36.4421 66.1508 36.3157 66.9758 36.0628 67.7661L35.5697 69.3182C34.9343 71.3254 35.105 73.5003 36.047 75.3811" stroke="white" stroke-width="3" stroke-miterlimit="10"/>
<path d="M16.8532 12.3778C2.02464 12.3778 1.86658 22.8125 2.02464 27.7564C2.20166 33.2535 7.37317 46.7544 16.8532 46.7544C26.3333 46.7544 31.5079 33.2535 31.6818 27.7564C31.843 22.8125 31.6849 12.3778 16.8532 12.3778Z" stroke="white" stroke-width="3" stroke-miterlimit="10"/>
<path d="M36.1326 23.6376C34.4382 23.6376 32.9399 23.7735 31.6059 24.0232C31.7387 25.4141 31.7197 26.707 31.6849 27.7564C31.549 32.0207 28.4069 41.0962 22.5811 44.9558C24.6705 50.9461 29.273 58.0142 36.1326 58.0142C45.6126 58.0142 50.7873 44.5133 50.9611 39.0162C51.1192 34.0723 50.9611 23.6376 36.1326 23.6376Z" stroke="white" stroke-width="3" stroke-miterlimit="10"/>
</svg>
