<svg width="82" height="82" viewBox="0 0 82 82" fill="none" xmlns="http://www.w3.org/2000/svg">
<path d="M24.7373 76.4622C29.6875 78.7381 35.2004 80.0089 41.0073 80.0089C55.0741 80.0089 67.4022 72.5614 74.2649 61.3934L57.0371 44.1655L24.7373 76.4622Z" stroke="white" stroke-width="3" stroke-miterlimit="10"/>
<path d="M61.3929 7.74683L44.165 24.9747L76.4617 57.2713C78.7377 52.3211 80.0084 46.8082 80.0084 41.0013C80.0084 26.9377 72.5609 14.6095 61.3929 7.74683Z" stroke="white" stroke-width="3" stroke-miterlimit="10"/>
<path d="M57.2742 5.54672C52.324 3.27075 46.8111 2 41.0042 2C26.9374 2 14.6093 9.44748 7.74658 20.6155L24.9744 37.8434L57.2742 5.54672Z" stroke="white" stroke-width="3" stroke-miterlimit="10"/>
<path d="M5.54671 24.7344C3.27074 29.6846 2 35.1975 2 41.0044C2 55.0712 9.44746 67.3993 20.6155 74.262L37.8433 57.0342L5.54671 24.7344Z" stroke="white" stroke-width="3" stroke-miterlimit="10"/>
</svg>
