<svg width="79" height="67" viewBox="0 0 79 67" fill="none" xmlns="http://www.w3.org/2000/svg">
<path d="M39.2785 2.05453L2.56899 15.704C1.81034 15.9854 1.81034 17.057 2.56899 17.3383L39.2785 30.9878C39.4745 31.0605 39.6894 31.0605 39.8854 30.9878L76.5949 17.3383C77.3536 17.057 77.3536 15.9854 76.5949 15.704L39.8854 2.05453C39.6894 1.98182 39.4745 1.98182 39.2785 2.05453Z" stroke="white" stroke-width="3" stroke-miterlimit="10"/>
<path d="M15.8042 22.2633V43.8502C15.8042 43.8502 20.6722 51.4526 39.5817 51.4526C58.4944 51.4526 63.3593 43.8502 63.3593 43.8502V22.2633" stroke="white" stroke-width="3" stroke-miterlimit="10"/>
<path d="M6.72578 65.4971L2 52.9477V16.5227" stroke="white" stroke-width="3" stroke-miterlimit="10"/>
<path d="M2 65.4971V52.9476" stroke="white" stroke-width="3" stroke-miterlimit="10"/>
</svg>
