<svg width="82" height="81" viewBox="0 0 82 81" fill="none" xmlns="http://www.w3.org/2000/svg">
<path d="M25.2462 20.3468C30.3125 20.3468 34.4196 16.2398 34.4196 11.1734C34.4196 6.10708 30.3125 2 25.2462 2C20.1798 2 16.0728 6.10708 16.0728 11.1734C16.0728 16.2398 20.1798 20.3468 25.2462 20.3468Z" stroke="white" stroke-width="3" stroke-miterlimit="10"/>
<path d="M69.2011 79.0542C74.9622 79.0542 79.6326 74.3839 79.6326 68.6227C79.6326 62.8615 74.9622 58.1912 69.2011 58.1912C63.4399 58.1912 58.7695 62.8615 58.7695 68.6227C58.7695 74.3839 63.4399 79.0542 69.2011 79.0542Z" stroke="white" stroke-width="3" stroke-miterlimit="10"/>
<path d="M34.9417 20.3468H16.8003C13.3832 20.3468 10.7374 23.3403 11.1578 26.7322L13.3895 44.7882H38.3524L40.5842 26.7322C41.0046 23.3403 38.3588 20.3468 34.9417 20.3468Z" stroke="white" stroke-width="3" stroke-miterlimit="10"/>
<path d="M15.4531 44.7882L20.1252 69.7448H31.6157L36.2877 44.7882H15.4531Z" stroke="white" stroke-width="3" stroke-miterlimit="10"/>
<path d="M11.1956 25.1169H2V36.4968H12.3651" stroke="white" stroke-width="3" stroke-miterlimit="10"/>
<path d="M39.3765 36.4968H79.6327V25.1169H40.5461" stroke="white" stroke-width="3" stroke-miterlimit="10"/>
</svg>
