<svg width="82" height="82" viewBox="0 0 82 82" fill="none" xmlns="http://www.w3.org/2000/svg">
<path d="M80.0089 80.0089H2V14.9161C2 7.7816 7.7816 2 14.9161 2H80.0089V80.0089V80.0089Z" stroke="white" stroke-width="3" stroke-miterlimit="10"/>
<path d="M15.5989 29.1978C23.1094 29.1978 29.1978 23.1094 29.1978 15.5989C29.1978 8.08844 23.1094 2 15.5989 2C8.08844 2 2 8.08844 2 15.5989C2 23.1094 8.08844 29.1978 15.5989 29.1978Z" stroke="white" stroke-width="3" stroke-miterlimit="10"/>
<path d="M15.5986 29.1947V72.3717" stroke="white" stroke-width="3" stroke-miterlimit="10"/>
<path d="M80.009 15.599H29.1948" stroke="white" stroke-width="3" stroke-miterlimit="10"/>
<path d="M59.5789 46.9061C65.4238 46.9061 70.1621 42.1679 70.1621 36.3229C70.1621 30.4779 65.4238 25.7396 59.5789 25.7396C53.7339 25.7396 48.9956 30.4779 48.9956 36.3229C48.9956 42.1679 53.7339 46.9061 59.5789 46.9061Z" stroke="white" stroke-width="3" stroke-miterlimit="10"/>
<path d="M40.7168 48.3507L46.9283 54.5622" stroke="white" stroke-width="3" stroke-miterlimit="10"/>
<path d="M31.6509 57.0184L38.2607 63.6282" stroke="white" stroke-width="3" stroke-miterlimit="10"/>
<path d="M47.0325 48.2465C45.3319 46.5458 43.6944 45.43 41.9938 47.1275L7.61084 80.0089H22.5975L48.1484 53.2884C49.8522 51.5877 48.7332 49.9471 47.0325 48.2465Z" stroke="white" stroke-width="3" stroke-miterlimit="10"/>
</svg>
