<svg width="251" height="114" viewBox="0 0 251 114" fill="none" xmlns="http://www.w3.org/2000/svg">
<path d="M240.685 23.8976L242.409 23.2321C241.29 20.2676 239.626 17.5754 237.478 15.2763L236.117 16.5166L237.72 15.6091C237.66 15.4881 237.569 15.3671 237.478 15.2763C235.24 12.8563 232.457 11.0111 229.311 9.74056C229.25 9.71031 229.19 9.71031 229.129 9.68006L228.645 11.4648L229.341 9.74056C226.014 8.40955 222.293 7.92555 218.36 8.10705C218.36 8.10705 218.33 8.10705 218.3 8.10705L218.421 9.98256L218.33 8.1373C216.394 8.22805 214.549 8.5003 212.764 8.98431C211.009 9.46831 209.315 10.1338 207.773 11.0111C204.869 12.6748 202.388 14.8831 200.513 17.5754C198.728 20.1466 197.427 22.9901 196.671 26.0454C195.915 29.0099 195.612 32.035 195.763 35.06L196.762 34.9995L195.763 35.06L196.762 34.9995L195.763 35.06C195.763 35.06 195.763 35.0902 195.763 35.1205L197.609 34.9692L195.763 35.06V35.0902C195.945 38.4177 196.671 41.6243 198.002 44.5888C199.303 47.5533 201.148 50.2153 203.477 52.4841C205.806 54.7831 208.589 56.5678 211.675 57.7779C214.851 59.0181 218.3 59.5021 221.869 59.3206L221.809 58.1106L221.869 59.3206L221.809 58.1106L221.869 59.3206L221.809 57.6871L221.839 59.3206H221.869L221.809 57.6871L221.839 59.3206H221.9H221.93L221.869 58.0804L221.93 59.3206L221.869 58.0804L221.93 59.3206C225.288 59.1391 228.464 58.3526 231.368 56.9006C231.428 56.8703 231.519 56.8401 231.58 56.7796L230.551 55.2368L231.368 56.9006C234.242 55.4788 236.722 53.4521 238.749 50.9413L237.297 49.7918L238.658 51.0321L238.719 50.9413C240.715 48.4608 242.197 45.587 243.135 42.4108C244.103 39.2042 244.466 35.786 244.285 32.2164V32.1862L242.5 32.3072L244.285 32.3677C244.285 32.2467 244.285 32.2164 244.285 32.2164L242.5 32.3375L244.285 32.398V32.2467V32.2164L242.742 32.3072L244.285 32.2164L242.742 32.3072L244.285 32.2164C244.133 29.1309 243.498 26.1362 242.409 23.2624L240.685 23.8976L238.961 24.5632C239.929 27.0739 240.473 29.7057 240.594 32.398V32.4282L242.137 32.3375L240.594 32.4282L242.137 32.3375L240.594 32.4282L242.439 32.3375L240.594 32.2769C240.594 32.3677 240.594 32.398 240.594 32.4282V32.4585L242.258 32.3677L240.594 32.4585V32.4887L242.258 32.398L240.594 32.4887C240.745 35.6952 240.413 38.69 239.596 41.4428C238.779 44.1955 237.509 46.6155 235.815 48.7331L237.267 49.8826L235.905 48.6423L235.845 48.7331C234.151 50.8203 232.094 52.4841 229.704 53.6941C229.644 53.7243 229.553 53.7848 229.492 53.8151L230.521 55.3578L229.704 53.6941C227.314 54.9041 224.622 55.5696 221.718 55.7208H221.688L221.748 56.9611L221.688 55.7208L221.748 56.9611L221.688 55.7208L221.779 57.5661L221.748 55.7208C221.718 55.7208 221.688 55.7208 221.688 55.7208L221.748 56.6283L221.688 55.7208L221.748 56.6283L221.688 55.7208C218.572 55.8721 215.668 55.4486 213.006 54.4201C210.374 53.3916 208.045 51.9093 206.048 49.9431C204.082 48.007 202.509 45.7383 201.36 43.167C200.21 40.626 199.575 37.8732 199.424 34.9692V34.9087L197.699 35.0297L199.424 34.939V34.9087L197.699 35.0297L199.424 34.939L197.941 35.0297L199.424 34.9692L197.941 35.06L199.424 34.9995C199.303 32.3375 199.545 29.7057 200.21 27.0739C200.876 24.4422 201.995 22.0221 203.507 19.8139C205.05 17.5754 207.077 15.7603 209.557 14.3386C210.798 13.6126 212.189 13.0681 213.672 12.6748C215.154 12.2816 216.757 12.0396 218.481 11.9488H218.512L218.391 10.3456L218.481 11.9488H218.512L218.391 10.3456L218.481 11.9488C222.021 11.7673 225.167 12.2211 227.919 13.3101C227.98 13.3403 228.04 13.3403 228.101 13.3706L228.585 11.5858L227.889 13.3101C230.581 14.3991 232.88 15.9418 234.726 17.9081L236.087 16.6679L234.484 17.5754C234.544 17.6964 234.635 17.8174 234.726 17.9081C236.541 19.8744 237.932 22.1431 238.9 24.6539L240.685 23.8976Z" fill="#050505"/>
<path d="M240.684 23.8976C239.625 21.1449 238.113 18.6644 236.146 16.5469C234.12 14.3386 231.579 12.6446 228.644 11.4951C225.589 10.2851 222.171 9.80106 218.42 9.98256C216.605 10.0733 214.881 10.3456 213.247 10.7691C211.614 11.1926 210.101 11.8278 208.71 12.6143C206.017 14.1268 203.779 16.1536 202.055 18.6341C200.391 21.0239 199.211 23.6556 198.485 26.4992C197.759 29.2822 197.487 32.1257 197.638 34.9692C197.789 38.085 198.485 41.0495 199.725 43.8325C200.935 46.5853 202.66 49.0658 204.807 51.1531C206.955 53.2706 209.526 54.9343 212.37 56.0233C215.304 57.1728 218.48 57.6266 221.838 57.4451C224.954 57.2938 227.918 56.5678 230.55 55.2368C233.182 53.9058 235.481 52.0908 237.296 49.7918C239.141 47.4928 240.503 44.8308 241.38 41.8965C242.287 38.9017 242.62 35.6952 242.469 32.3072C242.318 29.4032 241.713 26.5899 240.684 23.8976Z" fill="#FFF100"/>
<path d="M213.368 2.02676L213.459 0.211751C211.009 0.0605004 208.468 0 205.836 0C203.204 0 200.452 0.0907505 197.608 0.211751C193.615 0.423503 189.622 0.786505 185.629 1.27051C181.606 1.78476 177.703 2.48052 173.892 3.38802L171.714 3.90227C170.867 4.11402 170.292 4.87028 170.322 5.74753L170.837 19.2391C170.867 19.7836 171.109 20.2979 171.563 20.6306C171.986 20.9634 172.561 21.0844 173.075 20.9331L176.312 20.1466C178.308 19.6626 180.547 19.2391 182.967 18.8761C184.48 18.6341 186.053 18.4224 187.626 18.2409L187.414 16.4258L185.599 16.3956C185.569 17.8779 185.569 19.5114 185.569 21.2659C185.569 24.4119 185.659 27.9209 185.871 31.8232C185.992 34.1827 186.143 36.6632 186.385 39.295C186.597 41.957 186.9 44.7098 187.263 47.4928L187.595 50.0641C187.716 51.0321 188.563 51.6976 189.531 51.6371L192.103 51.4253L203.507 50.5178C203.991 50.4876 204.445 50.2456 204.777 49.8523C205.08 49.459 205.231 48.975 205.171 48.491L204.838 45.6778C204.445 42.441 204.112 39.3555 203.84 36.4212C203.567 33.5172 203.356 30.7644 203.204 28.1629C203.053 25.2287 202.993 22.4759 202.962 19.9046C202.962 18.3014 202.962 16.7889 202.993 15.3368L201.178 15.3066L201.238 17.1216C202.993 17.0611 204.687 17.0309 206.381 17.0309C208.831 17.0309 211.1 17.1519 213.126 17.3636L216.272 17.6964C216.787 17.7569 217.331 17.5754 217.694 17.2124C218.087 16.8494 218.299 16.3351 218.269 15.8208L217.634 1.99651C217.603 1.05876 216.847 0.332752 215.909 0.272252L213.459 0.121001L213.368 2.02676L213.278 3.84177L214.094 3.90227L214.548 13.9756L213.489 13.8546C211.281 13.6126 208.922 13.4916 206.35 13.4916C204.626 13.4916 202.841 13.5218 201.057 13.5823C200.089 13.6126 199.302 14.3991 199.302 15.3671C199.272 16.8191 199.272 18.3316 199.272 19.9651C199.272 22.5969 199.363 25.4102 199.514 28.3747C199.635 31.0367 199.877 33.85 200.149 36.8145C200.452 39.779 200.784 42.8948 201.178 46.1618L201.299 47.0995L191.8 47.8558L190.953 47.9163L190.832 47.0693C190.469 44.3165 190.197 41.6545 189.985 39.053C189.773 36.4515 189.622 34.0012 189.501 31.6719C189.32 27.8302 189.199 24.3816 189.199 21.2961C189.199 19.5416 189.199 17.9384 189.229 16.4561C189.229 15.9418 189.017 15.4276 188.624 15.0948C188.231 14.7318 187.716 14.5806 187.202 14.6411C185.599 14.8528 183.996 15.0646 182.453 15.2763C179.942 15.6696 177.613 16.0931 175.465 16.6074L174.376 16.8796L173.983 7.10879L174.709 6.92729C178.399 6.08029 182.211 5.38453 186.113 4.90053C190.015 4.38628 193.918 4.05352 197.82 3.84177C200.603 3.69052 203.295 3.63002 205.866 3.63002C208.438 3.63002 210.888 3.69052 213.278 3.84177L213.368 2.02676Z" fill="#050505"/>
<path d="M213.369 2.02675C210.949 1.8755 208.438 1.815 205.867 1.815C203.265 1.815 200.573 1.90575 197.729 2.02675C193.767 2.2385 189.834 2.57126 185.871 3.08551C181.909 3.59976 178.067 4.29552 174.316 5.14252L172.138 5.65678L172.652 19.1484L175.889 18.3619C177.946 17.8476 180.245 17.4241 182.725 17.0611C184.268 16.8191 185.841 16.6073 187.444 16.4258C187.414 17.9081 187.414 19.5114 187.414 21.2659C187.414 24.3816 187.505 27.8604 187.717 31.7324C187.838 34.0617 187.989 36.5422 188.201 39.1437C188.412 41.7755 188.715 44.498 189.078 47.2508L189.411 49.822L191.982 49.6103L203.386 48.7028L203.053 45.8895C202.66 42.6225 202.327 39.537 202.025 36.5725C201.722 33.6382 201.511 30.8552 201.39 28.2234C201.238 25.2589 201.148 22.4759 201.148 19.8744C201.148 18.2409 201.148 16.7283 201.178 15.3066C202.932 15.2461 204.687 15.2158 206.381 15.2158C208.892 15.2158 211.191 15.3368 213.338 15.5788L216.484 15.9116L215.849 2.08725L213.369 2.02675Z" fill="#FFF100"/>
<path d="M181.879 41.5335L181.153 39.8698L177.946 41.2613C175.133 42.5015 172.259 43.4695 169.325 44.2258C166.33 44.982 163.547 45.4963 161.006 45.7383C160.31 45.7988 159.705 45.8593 159.221 45.8593C158.737 45.8593 158.344 45.8593 158.132 45.829L157.921 47.6441L158.163 45.829H158.132L158.042 46.4643L158.223 45.829C158.163 45.829 158.132 45.7988 158.132 45.7988L158.042 46.434L158.223 45.7988L157.86 47.0995L158.435 45.8593C158.344 45.829 158.284 45.7988 158.223 45.7988L157.86 47.0995L158.435 45.8593L157.679 47.5231L159.221 46.555L158.072 47.281L159.282 46.6155C159.282 46.6155 159.252 46.5853 159.252 46.555L158.102 47.281L159.312 46.6155L158.768 46.918L159.342 46.6458L159.312 46.6155L158.768 46.918L159.342 46.6458H159.312H159.342H159.312H159.342C159.342 46.6458 159.312 46.5853 159.282 46.4945V46.4643C159.221 46.2828 159.131 45.829 159.07 45.2845L158.011 45.4055L159.07 45.3148L158.011 45.4358L159.07 45.345V45.3148C159.01 44.861 158.979 44.2863 158.949 43.6208L157.134 43.7115L157.467 45.4963C158.132 45.3753 158.828 45.2543 159.554 45.1333C160.522 44.982 161.188 44.0745 161.036 43.1065C160.915 42.1385 160.038 41.4428 159.04 41.5335L159.221 43.3485L159.524 45.1333C161.157 44.861 162.821 44.5888 164.576 44.3468C166.33 44.0745 168.024 43.8628 169.658 43.651C171.291 43.4393 172.743 43.2578 174.044 43.1368C174.952 43.046 175.768 42.9553 176.434 42.925L176.283 41.11L176.101 39.295C175.103 39.3857 174.377 40.263 174.468 41.2613C174.558 42.2595 175.436 42.9855 176.434 42.8948C177.099 42.8343 177.614 42.804 177.886 42.804L180.76 42.7435C181.244 42.7435 181.728 42.5015 182.06 42.1385C182.393 41.7755 182.575 41.2915 182.514 40.7773L181.486 27.7092C181.425 26.7714 180.639 26.0454 179.731 26.0454L177.281 25.9849C176.525 25.9547 175.738 26.0152 174.861 26.0757H174.831L175.012 27.8907L174.861 26.0757C174.044 26.1362 173.106 26.2269 172.078 26.3479C170.263 26.5294 168.266 26.7714 166.088 27.0739L166.33 28.8587L166.149 27.0437H166.088C163.88 27.3462 161.672 27.6789 159.463 28.0722C158.495 28.2234 157.588 28.4049 156.711 28.5864L157.074 30.3712L158.889 30.4317C158.889 30.1897 158.889 29.9779 158.919 29.7662C158.949 29.1612 158.979 28.5562 159.01 27.9512L157.195 27.8604L157.316 29.6452C158.798 29.4032 160.341 29.1914 161.914 28.9494C164.243 28.6167 166.421 28.3444 168.478 28.1327C170.202 27.9512 171.745 27.8302 173.106 27.7697C174.074 27.7092 174.831 26.9227 174.831 25.9849C174.831 25.0472 174.105 24.2304 173.137 24.1699L173.016 25.9849L173.106 27.7999C173.772 27.7697 174.347 27.7394 174.861 27.7394C175.345 27.7394 175.738 27.7697 176.01 27.7697L179.126 28.0117C179.64 28.0419 180.155 27.8604 180.548 27.4974C180.911 27.1344 181.123 26.6202 181.092 26.1059L180.366 12.5236C180.306 11.5556 179.519 10.8296 178.582 10.7993L176.01 10.7691C174.982 10.7691 173.802 10.7993 172.411 10.8901C171.019 10.9808 169.537 11.1018 167.933 11.2833C165.876 11.4951 163.729 11.7673 161.43 12.0698C159.131 12.4026 156.801 12.7353 154.502 13.1588L154.805 14.9436L154.623 13.1286L154.502 13.1588C152.203 13.5521 150.025 13.9756 147.938 14.3991C147.878 14.4293 147.847 14.4293 147.757 14.4293L148.301 16.1536L147.938 14.3688C145.851 14.7923 143.975 15.2461 142.312 15.7301L139.861 16.4561C138.954 16.7284 138.379 17.6661 138.591 18.6039L141.465 31.43C141.586 31.9442 141.888 32.3677 142.342 32.6097C142.796 32.8517 143.31 32.9122 143.794 32.761L144.369 32.5795L143.794 30.8552L141.979 30.7342C141.949 31.3392 141.918 31.9745 141.858 32.6097C141.737 34.8482 141.676 37.1775 141.707 39.537C141.707 41.957 141.828 44.3165 142.07 46.5853C142.251 48.2188 142.493 49.7313 142.856 51.1531C143.219 52.5748 143.673 53.9058 144.308 55.1158C144.913 56.2956 145.639 57.3846 146.516 58.3526C147.394 59.3206 148.422 60.1374 149.572 60.8029L149.602 60.8331C150.479 61.3171 151.568 61.0146 152.082 60.1374C152.597 59.2601 152.264 58.1711 151.387 57.6569L151.356 57.6266C150.933 57.3846 150.449 57.3241 149.965 57.4754C149.481 57.6266 149.118 57.8989 148.876 58.3224C148.634 58.7459 148.573 59.2299 148.725 59.7139C148.876 60.1979 149.148 60.5609 149.572 60.8029C150.63 61.3776 151.719 61.8314 152.899 62.1641C154.049 62.4969 155.259 62.6784 156.499 62.7691C158.768 62.9204 161.157 62.8599 163.759 62.5876C166.149 62.3456 168.901 61.8616 172.048 61.1659C172.169 61.1356 172.29 61.1054 172.411 61.0449L171.654 59.3811L172.048 61.1659C175.345 60.4399 178.914 59.2904 182.756 57.8081L184.813 56.9914C185.63 56.6889 186.084 55.8419 185.932 54.9949L183.633 41.2008C183.543 40.6563 183.21 40.1723 182.696 39.9C182.212 39.6277 181.607 39.5975 181.092 39.8395L181.879 41.5335L180.094 41.836L182.151 54.1781L181.455 54.4503C177.765 55.9023 174.347 56.9611 171.261 57.6569C171.14 57.6871 171.019 57.7174 170.898 57.7779L171.654 59.4416L171.261 57.6569C168.206 58.3526 165.604 58.8064 163.396 59.0181C160.976 59.2601 158.737 59.3206 156.741 59.1694C155.712 59.1089 154.744 58.9274 153.837 58.6854C152.929 58.4434 152.082 58.0804 151.326 57.6569C150.449 57.1729 149.36 57.4754 148.846 58.3526C148.362 59.2299 148.664 60.3189 149.541 60.8331L149.572 60.8634C149.995 61.1054 150.479 61.1659 150.963 61.0146C151.417 60.8936 151.81 60.5911 152.052 60.1676C152.294 59.7441 152.355 59.2601 152.203 58.7761C152.082 58.3224 151.78 57.9291 151.356 57.6871L151.326 57.6569C150.54 57.2031 149.814 56.6284 149.178 55.9326C148.543 55.2368 147.999 54.4201 147.515 53.4823C147.031 52.5446 146.668 51.4858 146.335 50.2758C146.032 49.0658 145.79 47.7348 145.639 46.2525C145.427 44.1048 145.306 41.8965 145.306 39.5673C145.306 37.2682 145.337 35.0297 145.458 32.8517C145.488 32.2165 145.518 31.5812 145.548 31.0064C145.579 30.4014 145.337 29.8267 144.853 29.4637C144.369 29.1007 143.764 28.9797 143.189 29.1612L142.614 29.3427L143.189 31.0669L144.974 30.6737L142.463 19.5114L143.28 19.2694C144.822 18.8156 146.607 18.3921 148.634 17.9686C148.694 17.9384 148.725 17.9384 148.815 17.9384L148.271 16.2141L148.634 17.9989C150.661 17.5754 152.808 17.1821 155.077 16.7889L154.775 15.0041L154.956 16.8191L155.077 16.7889C157.346 16.3956 159.615 16.0326 161.883 15.7301C164.152 15.4276 166.27 15.1554 168.266 14.9436C169.839 14.7923 171.291 14.6713 172.622 14.5806C173.953 14.4898 175.042 14.4596 175.95 14.4596H176.797L177.341 24.2607L176.313 24.1699C175.889 24.1397 175.436 24.1094 174.861 24.1094C174.286 24.1094 173.651 24.1397 172.955 24.1699C171.987 24.2304 171.231 25.0169 171.231 25.9547C171.231 26.9227 171.957 27.7092 172.925 27.7697L173.046 25.9547L172.955 24.1397C171.533 24.2002 169.9 24.3212 168.115 24.5027C166.028 24.7144 163.789 24.9867 161.43 25.3194C159.826 25.5614 158.284 25.7732 156.771 26.0152C155.924 26.1362 155.289 26.8622 155.228 27.7092C155.198 28.3444 155.168 28.9797 155.138 29.6149C155.138 29.8569 155.138 30.0687 155.107 30.2804C155.077 30.8249 155.319 31.3695 155.743 31.7325C156.166 32.0955 156.741 32.2467 157.255 32.1257C158.102 31.9442 159.01 31.793 159.917 31.6417C162.095 31.2787 164.273 30.9459 166.451 30.6434L166.209 28.8587L166.391 30.6737H166.451C168.629 30.3712 170.565 30.1292 172.32 29.9477C173.318 29.8569 174.226 29.7662 175.042 29.7057H175.073L174.891 27.8907L175.042 29.7057C175.859 29.6452 176.525 29.6149 177.099 29.6149L177.916 29.6452L178.672 39.174L177.704 39.2043C177.311 39.2043 176.767 39.2345 176.071 39.295L176.222 41.11L176.404 42.925C177.402 42.8343 178.128 41.957 178.037 40.9588C177.946 39.9605 177.069 39.2345 176.071 39.3252C175.375 39.3857 174.558 39.4463 173.621 39.5673C172.29 39.7185 170.777 39.8698 169.113 40.1118C167.449 40.3235 165.755 40.5655 163.971 40.8378C162.216 41.11 160.492 41.3823 158.858 41.6545C157.89 41.8058 157.225 42.7133 157.376 43.6813C157.497 44.6493 158.374 45.345 159.373 45.2543L159.191 43.4393L158.889 41.6545C158.132 41.7755 157.406 41.9268 156.711 42.0478C155.803 42.2293 155.198 43.0158 155.228 43.9233C155.259 44.6493 155.319 45.2543 155.38 45.7685V45.7988L157.195 45.6173L155.38 45.7685V45.7988C155.47 46.5248 155.561 47.1298 155.712 47.6138V47.5835C155.773 47.8256 155.833 48.0071 155.924 48.1583C155.954 48.2491 155.985 48.3096 156.015 48.3701C156.045 48.4003 156.045 48.4306 156.075 48.4608C156.106 48.4911 156.106 48.5213 156.136 48.5516C156.317 48.8541 156.59 49.0961 156.922 49.2473C157.043 49.3078 157.164 49.3381 157.316 49.3683C157.467 49.3986 157.588 49.4288 157.769 49.4591L157.981 47.6441L157.739 49.4591H157.769C158.223 49.5196 158.737 49.5196 159.342 49.5196C159.947 49.5196 160.643 49.4591 161.399 49.3683C164.152 49.0961 167.086 48.5516 170.233 47.765C173.348 46.9785 176.434 45.9198 179.429 44.619L182.635 43.2275L181.879 41.5335L180.094 41.836L181.879 41.5335Z" fill="#050505"/>
<path d="M181.878 41.5335L178.672 42.925C175.768 44.1955 172.803 45.224 169.778 45.9803C166.723 46.7668 163.849 47.281 161.187 47.5533C160.461 47.6138 159.826 47.6743 159.281 47.6743C158.737 47.6743 158.283 47.6743 157.95 47.644C157.769 47.6138 157.708 47.5835 157.678 47.5835C157.648 47.5533 157.557 47.3718 157.466 47.0693C157.376 46.7063 157.255 46.192 157.194 45.5568C157.134 45.0728 157.103 44.4678 157.043 43.772C157.708 43.651 158.434 43.53 159.16 43.3788C160.794 43.1065 162.488 42.8343 164.242 42.562C165.997 42.2898 167.691 42.078 169.355 41.836C170.988 41.6243 172.47 41.4428 173.801 41.3218C174.739 41.231 175.526 41.1402 176.221 41.11C176.917 41.0495 177.431 41.0193 177.764 41.0193L180.638 40.9587L179.609 27.8907L177.159 27.8302C176.494 27.8302 175.768 27.8604 174.921 27.9209C174.104 27.9814 173.196 28.0722 172.168 28.1629C170.383 28.3444 168.417 28.5864 166.239 28.8889C164.061 29.1914 161.853 29.5242 159.644 29.8872C158.707 30.0384 157.799 30.2199 156.952 30.3712C156.952 30.1594 156.952 29.9174 156.982 29.7057C157.013 29.0704 157.043 28.4654 157.073 27.8302C158.555 27.5882 160.098 27.3764 161.701 27.1344C164.061 26.8017 166.269 26.5294 168.326 26.3177C170.081 26.1362 171.654 26.0152 173.045 25.9547C174.437 25.8942 175.495 25.8942 176.191 25.9547L179.307 26.1967L178.581 12.6143L176.01 12.5841C175.042 12.5841 173.922 12.6143 172.561 12.7051C171.2 12.7958 169.748 12.9168 168.145 13.0983C166.118 13.3101 163.97 13.5521 161.701 13.8848C159.402 14.1873 157.134 14.5503 154.835 14.9436C152.536 15.3368 150.388 15.7603 148.331 16.1536C146.274 16.5771 144.429 17.0309 142.825 17.4846L140.375 18.2106L143.249 31.0367L143.824 30.8552C143.793 31.4602 143.763 32.0954 143.733 32.7307C143.612 34.939 143.551 37.2077 143.582 39.5672C143.582 41.9268 143.703 44.2258 143.945 46.434C144.096 47.9768 144.338 49.4288 144.671 50.7296C145.003 52.0303 145.427 53.2403 145.971 54.3293C146.516 55.3881 147.151 56.3258 147.907 57.1728C148.664 57.9896 149.541 58.7156 150.509 59.2601L150.539 59.2904L150.509 59.2601C151.416 59.7744 152.384 60.1676 153.443 60.4399C154.472 60.7121 155.561 60.8936 156.68 60.9844C158.797 61.1356 161.127 61.0751 163.637 60.8029C165.936 60.5609 168.598 60.1071 171.714 59.4114C174.921 58.6854 178.399 57.5964 182.15 56.1443L184.208 55.3276L181.878 41.5335Z" fill="#FFF100"/>
<path d="M145.669 31.1577L147.484 31.0064C147.242 28.2234 146.939 25.5614 146.637 23.0506L146.606 22.9296L144.822 23.2624L146.637 23.0506C146.334 20.5701 146.032 18.4829 145.79 16.6981L145.366 13.9151C145.306 13.4311 145.033 12.9773 144.61 12.7051C144.217 12.4328 143.702 12.3118 143.218 12.4026L128.94 15.0948C128.456 15.1856 128.033 15.4579 127.761 15.8814C127.488 16.3049 127.398 16.7889 127.488 17.2426L128.033 19.9651C128.759 23.5044 129.273 26.5597 129.636 29.1007C129.757 30.0687 130.604 30.7342 131.572 30.6737C132.54 30.6132 133.266 29.7964 133.236 28.8284L131.421 28.8587L129.636 29.1007C129.969 31.7022 130.211 33.971 130.362 35.8162C130.483 37.7522 130.574 39.4765 130.604 41.0193C130.634 42.0175 130.604 43.1368 130.544 44.2863C130.483 45.2543 131.209 46.1013 132.177 46.192C133.145 46.2828 134.022 45.6173 134.143 44.6493L132.359 44.377L130.544 44.2863C130.483 45.224 130.332 46.0105 130.12 46.7063C130.06 46.918 129.999 47.0088 129.939 47.0995C129.878 47.1903 129.848 47.2508 129.757 47.3113L130.967 48.6726L130.12 47.0693C129.999 47.1298 129.878 47.2205 129.787 47.3113L130.211 47.8256L129.878 47.2508C129.848 47.281 129.787 47.3113 129.757 47.3113L130.181 47.8256L129.848 47.2508L130.06 47.6138L129.908 47.2205L129.878 47.2508L130.09 47.6138L129.939 47.2205L129.969 47.281L129.939 47.2205L129.969 47.281L129.939 47.2205H129.908C129.878 47.2205 129.697 47.281 129.394 47.281L129.424 48.9751L129.394 47.281L129.424 48.9751L129.394 47.281C129.394 47.281 129.364 47.281 129.273 47.281L129.424 49.0961L129.394 47.281C129.213 47.281 129.092 47.281 129.001 47.2508C128.91 47.2205 128.85 47.2205 128.819 47.1903C128.789 47.16 128.729 47.16 128.668 47.0995C128.577 47.039 128.456 46.918 128.275 46.676C128.033 46.3433 127.7 45.7383 127.398 44.861C127.095 43.9838 126.823 42.8343 126.611 41.473L126.127 38.2967C126.036 37.7825 125.734 37.2985 125.28 37.0262C124.826 36.754 124.282 36.6935 123.768 36.8447L110.215 41.2613C109.308 41.5638 108.794 42.5015 109.005 43.409L109.58 45.8593C110.276 48.7331 111.183 51.3043 112.333 53.6336C113.482 55.9326 114.934 57.9594 116.689 59.6231C118.443 61.2869 120.531 62.5876 122.83 63.3741C125.129 64.1909 127.579 64.5237 130.15 64.4632H130.181L130.12 62.6784V64.4632C130.181 64.4632 130.211 64.4632 130.211 64.4632L130.15 62.6784V64.4632V62.6481L129.939 64.4329C130.029 64.4329 130.12 64.4329 130.15 64.4329V62.6179L129.939 64.4026C129.999 64.4026 130.12 64.4026 130.211 64.4026C131.814 64.3724 133.327 64.1909 134.779 63.8582C136.231 63.5254 137.622 63.0111 138.893 62.2851C138.953 62.2549 138.983 62.2246 139.044 62.1944L138.015 60.7121L138.923 62.2851C140.072 61.6196 141.131 60.8634 142.069 59.9559C143.007 59.0484 143.854 58.0501 144.519 56.9309V56.9006L142.946 55.9628L144.489 56.9006C145.699 54.9343 146.576 52.7563 147.06 50.4876C147.514 48.4306 147.786 46.3735 147.877 44.3165V44.1955L146.062 44.2258L147.877 44.2863C147.968 42.441 147.968 40.7773 147.937 39.295C147.877 36.5725 147.726 33.7592 147.453 30.9157L145.669 31.1577L143.854 31.3089C144.096 34.0617 144.247 36.7842 144.307 39.416C144.338 40.8075 144.307 42.3805 144.247 44.1653V44.2863L146.062 44.256L144.247 44.1653C144.156 45.9803 143.914 47.8558 143.521 49.7011C143.097 51.6068 142.371 53.3916 141.373 55.0251V55.0553V55.0251C140.859 55.8721 140.224 56.6284 139.528 57.3241C138.802 58.0199 137.985 58.6249 137.078 59.1391C137.017 59.1694 136.987 59.1996 136.926 59.2299L137.955 60.7121L137.047 59.1391C136.11 59.6836 135.051 60.0769 133.901 60.3491C132.752 60.6214 131.481 60.7726 130.09 60.8029L130.12 62.6179L130.332 60.8029C130.211 60.7726 130.12 60.8029 130.06 60.8029H130.029L130.09 62.5876L130.06 60.8029H130.029L130.09 62.5876L130.06 60.8029C127.882 60.8634 125.855 60.5609 124.01 59.9256C122.194 59.2904 120.561 58.2921 119.139 56.9611C117.748 55.6301 116.538 53.9663 115.539 51.9698C114.541 49.9733 113.724 47.644 113.089 44.982L112.908 44.1653L122.83 40.9285L122.981 41.9873C123.223 43.5603 123.526 44.8913 123.949 46.0408C124.342 47.1903 124.826 48.0978 125.341 48.8238C125.704 49.3078 126.067 49.6708 126.46 49.9733C126.702 50.1548 127.004 50.3363 127.277 50.4573C127.579 50.5783 127.882 50.6993 128.184 50.7598C128.547 50.8506 128.971 50.8808 129.394 50.8506H129.515L129.364 49.0658L129.394 50.8506C129.424 50.8506 129.455 50.8506 129.515 50.8506L129.364 49.0658L129.394 50.8506L129.364 49.1566L129.394 50.8506L129.364 49.1566L129.394 50.8506C130.029 50.8506 130.544 50.7598 130.997 50.6086C131.209 50.5481 131.391 50.4573 131.602 50.3363C131.784 50.2456 131.965 50.0943 132.086 50.0036L130.907 48.6423L131.754 50.2456C131.875 50.1851 131.996 50.0943 132.117 50.0036C132.449 49.7313 132.722 49.3683 132.964 49.0053C133.206 48.6423 133.387 48.2188 133.538 47.7348C133.841 46.7365 134.053 45.6475 134.113 44.4375C134.174 43.4695 133.448 42.6225 132.48 42.5318C131.512 42.441 130.634 43.1065 130.513 44.0745L132.298 44.3468L134.113 44.4375C134.174 43.1973 134.204 42.0175 134.174 40.8983C134.143 39.295 134.053 37.5102 133.932 35.544C133.811 33.5777 133.538 31.2484 133.206 28.5864C133.085 27.6184 132.238 26.9529 131.27 27.0134C130.302 27.0739 129.576 27.8907 129.606 28.8587L131.421 28.8284L133.206 28.5864C132.843 25.9244 132.298 22.8086 131.572 19.1786L131.391 18.2711L142.008 16.2746L142.19 17.2426C142.462 18.9669 142.734 21.0239 143.037 23.4741L143.067 23.5951L144.852 23.2624L143.037 23.4741C143.339 25.9244 143.612 28.5259 143.854 31.3089L145.669 31.1577Z" fill="#050505"/>
<path d="M145.669 31.1577C145.427 28.3747 145.125 25.7429 144.822 23.2624C144.52 20.8121 144.217 18.6946 143.975 16.9703L143.552 14.1873L129.274 16.8796L129.818 19.6021C130.544 23.1716 131.089 26.2874 131.422 28.8889C131.785 31.5207 132.027 33.8197 132.148 35.7255C132.269 37.6917 132.359 39.4462 132.39 40.989C132.42 42.0478 132.39 43.1973 132.329 44.4073C132.269 45.466 132.087 46.4038 131.845 47.2508C131.754 47.5835 131.603 47.8558 131.452 48.0978C131.301 48.3398 131.149 48.5213 130.938 48.7028C130.817 48.7935 130.696 48.8843 130.454 48.9448C130.212 49.0355 129.879 49.096 129.395 49.096C129.092 49.096 128.85 49.0658 128.608 49.0355C128.215 48.9448 127.882 48.7935 127.55 48.5515C127.308 48.37 127.035 48.0978 126.793 47.765C126.4 47.2508 126.007 46.4643 125.644 45.466C125.281 44.4678 124.978 43.1973 124.767 41.7452L124.283 38.569L110.791 42.9553L111.366 45.4055C112.031 48.1583 112.878 50.6086 113.967 52.7866C115.056 54.9343 116.357 56.7796 117.96 58.2921C119.533 59.8046 121.409 60.9239 123.466 61.6499C125.523 62.3759 127.761 62.6784 130.151 62.6481C131.633 62.6179 133.025 62.4666 134.356 62.1641C135.657 61.8616 136.897 61.4079 137.986 60.7726C139.014 60.1979 139.952 59.5021 140.799 58.7156C141.646 57.9291 142.342 57.0216 142.947 56.0536C144.036 54.2386 144.853 52.2723 145.306 50.185C145.73 48.2188 146.002 46.2828 146.093 44.3165C146.153 42.5015 146.184 40.868 146.153 39.4462C146.093 36.7237 145.942 33.971 145.669 31.1577Z" fill="#FFF100"/>
<path d="M246.583 97.7686L244.738 97.4056V97.4661V97.4963C244.556 98.5248 245.252 99.4929 246.281 99.6744C247.309 99.8559 248.277 99.1904 248.459 98.1618V98.1316C248.64 97.1031 247.975 96.1351 246.976 95.9536C245.978 95.7418 244.98 96.4073 244.768 97.4056L246.583 97.7686L244.738 97.4358V97.4661C244.647 97.9501 244.768 98.4643 245.04 98.8879C245.343 99.3114 245.766 99.5836 246.25 99.6744C246.734 99.7651 247.249 99.6441 247.672 99.3719C248.096 99.0694 248.368 98.6459 248.459 98.1618V98.1316L246.583 97.7686L248.428 98.1618L246.583 97.7686L244.738 97.4358L246.583 97.7686Z" fill="#050505"/>
<path d="M246.886 103.577L247.189 102.699C247.763 101.308 248.157 99.7651 248.459 98.1316C248.762 96.4981 249.034 94.5621 249.246 92.2933C249.457 90.0246 249.669 87.5743 249.851 84.9425C250.032 82.3108 250.183 79.7092 250.335 77.0775C250.486 74.1432 250.637 71.3602 250.758 68.7587L248.883 68.6679L250.758 68.7587C250.879 66.0967 250.97 63.9489 250.97 62.2549L251 59.1694C251 58.6551 250.788 58.1409 250.425 57.7779C250.032 57.4149 249.518 57.2334 249.004 57.2636L233.516 58.3224C232.971 58.3526 232.487 58.6249 232.154 59.0181C231.822 59.4416 231.67 59.9559 231.761 60.5004L232.245 63.5556C232.306 63.8581 232.336 64.3119 232.396 64.8867C232.457 65.4614 232.487 66.1269 232.517 66.8832C232.578 68.4259 232.608 70.1804 232.608 72.1769C232.608 74.1432 232.578 76.17 232.517 78.3177C231.701 76.8355 224.562 57.9896 224.229 57.5661C223.896 57.1426 223.442 56.8704 222.898 56.8099L208.741 55.4788C207.742 55.3881 206.865 56.0838 206.714 57.0519L206.29 59.6534C205.837 62.3456 205.383 65.1287 204.929 68.0629C204.445 71.0577 203.991 74.2642 203.568 77.6825C203.144 81.131 202.721 84.9425 202.358 89.1171C201.995 93.2916 201.662 97.9804 201.39 103.153L201.239 106.027C201.208 106.541 201.39 107.025 201.723 107.388C202.055 107.751 202.539 107.993 203.054 107.993L205.927 108.114L217.604 108.538C218.118 108.568 218.602 108.356 218.965 108.023C219.328 107.66 219.54 107.176 219.54 106.662L219.57 103.758C219.57 103.093 219.6 102.336 219.631 101.52C219.691 100.642 219.721 99.7349 219.782 98.7366C219.873 96.7703 220.024 94.6528 220.205 92.3538C220.387 92.6866 220.568 93.0496 220.75 93.3823C222.02 95.7721 223.14 97.8594 224.078 99.6744C224.864 101.126 225.62 102.427 226.437 103.577C227.254 104.726 229.644 107.267 229.644 107.267L246.886 103.577ZM246.977 68.5469C246.856 71.1484 246.705 73.9315 246.553 76.8657C246.402 79.4672 246.251 82.0688 246.069 84.6703C245.888 87.302 245.706 89.6918 245.495 91.9001C245.283 94.1083 245.041 95.9536 244.738 97.4056C244.466 98.8576 244.133 100.128 243.68 101.217C243.226 102.306 232.366 104.575 231.67 103.909C230.975 103.244 230.279 102.427 229.583 101.429C228.887 100.431 228.192 99.2509 227.466 97.9199C226.498 96.1048 225.409 93.9873 224.138 91.5976C222.989 89.4498 221.809 87.2415 220.568 84.9728C220.175 84.2468 219.358 83.8535 218.542 84.035C217.725 84.1863 217.12 84.882 217.029 85.6988C216.938 86.5155 216.878 87.3625 216.787 88.1793C216.454 91.9908 216.212 95.4393 216.031 98.4946C215.97 99.4929 215.94 100.4 215.88 101.278C215.819 102.125 215.819 102.941 215.789 103.667V104.635L206.048 104.272L205.08 104.242L205.141 103.274C205.413 98.1316 205.746 93.5033 206.109 89.3893C206.472 85.2753 206.865 81.494 207.319 78.106C207.742 74.718 208.196 71.5417 208.68 68.6074C209.164 65.6732 209.618 62.8901 210.041 60.1979L210.193 59.3206L220.568 60.2886L220.387 61.3171C220.266 62.0129 220.115 62.7389 219.994 63.4951C219.903 63.9791 219.994 64.4631 220.266 64.8867C221.143 66.2177 222.051 67.6999 223.049 69.3334C224.289 71.3602 225.53 73.4777 226.83 75.7162C228.101 77.9547 229.371 80.163 230.612 82.4015C231.277 83.6418 231.943 84.8215 232.578 85.971C232.971 86.697 233.818 87.0903 234.665 86.9088C235.482 86.7273 236.087 86.0013 236.117 85.1845C236.117 85.1543 236.117 85.124 236.117 85.0635C236.238 82.9763 236.299 80.7982 236.359 78.59C236.42 76.3515 236.45 74.2037 236.45 72.1769C236.45 70.1199 236.42 68.3049 236.359 66.7017C236.329 65.8849 236.268 65.1892 236.208 64.5539C236.147 63.9186 236.087 63.4044 236.026 62.9506L235.875 61.9221L247.249 61.1356V62.1641C247.158 63.7976 247.098 65.9152 246.977 68.5469Z" fill="#050505"/>
<path d="M248.853 68.6377C248.974 66.0059 249.064 63.8581 249.064 62.1944L249.095 59.1089L233.606 60.1676L234.09 63.2229C234.211 63.9791 234.332 65.1892 234.393 66.7622C234.453 68.3352 234.514 70.1199 234.484 72.1467C234.484 74.1735 234.453 76.3212 234.393 78.5295C234.332 80.7377 234.242 82.8855 234.151 84.9425C234.151 84.9728 234.151 85.0333 234.151 85.0635C233.516 83.8838 232.85 82.704 232.185 81.4637C230.944 79.2252 222.747 58.6249 222.747 58.6249L208.59 57.2939L208.166 59.8954C207.712 62.5876 207.259 65.3707 206.805 68.3049C206.321 71.2694 205.867 74.4457 205.444 77.864C205.02 81.2822 204.597 85.0635 204.233 89.2078C203.87 93.3521 203.538 98.0106 203.266 103.183L203.114 106.057L205.988 106.178L217.665 106.602L217.695 103.698C217.695 102.972 217.725 102.215 217.786 101.368C217.846 100.491 217.876 99.5836 217.937 98.5854C218.088 95.5301 218.36 92.1118 218.693 88.3305C218.754 87.5138 218.844 86.6668 218.935 85.85C220.145 88.1188 221.355 90.2968 222.474 92.4748C223.745 94.8646 224.864 96.9518 225.802 98.7971C226.558 100.189 227.284 101.429 228.04 102.518C228.797 103.607 229.553 104.514 230.37 105.301L245.434 101.943C245.434 101.943 246.312 99.3114 246.614 97.7383C246.917 96.1956 247.159 94.2898 247.37 92.0513C247.582 89.8128 247.794 87.3928 247.975 84.761C248.157 82.1293 248.308 79.5277 248.459 76.9262C248.58 74.0222 248.732 71.2694 248.853 68.6377Z" fill="#FF000A"/>
<path d="M212.128 68.7889L213.852 69.3334L214.82 66.3689C214.971 65.8546 214.911 65.3101 214.639 64.8866C214.366 64.4329 213.913 64.1304 213.398 64.0396L199.241 61.5591C198.303 61.4079 197.396 61.9826 197.184 62.8901L196.549 65.3101C195.883 67.9117 195.188 70.9064 194.522 74.2944C193.857 77.6825 193.252 81.1612 192.677 84.7308C192.223 87.5743 191.83 90.3875 191.467 93.1706C191.346 94.1688 192.042 95.0461 193.01 95.1973C193.978 95.3486 194.915 94.6528 195.067 93.6848L193.282 93.4126L191.467 93.1706C191.104 95.9536 190.832 98.5551 190.62 100.975C190.408 103.395 190.317 105.513 190.317 107.328V109.748C190.317 110.655 191.013 111.442 191.921 111.563L194.31 111.865L205.049 113.166C205.533 113.226 206.017 113.075 206.41 112.773C206.804 112.47 207.046 112.016 207.076 111.532L207.348 108.749C207.681 105.513 208.074 101.943 208.528 98.0408C208.982 94.1688 209.526 90.327 210.131 86.4853C210.736 82.7342 211.341 79.437 211.946 76.5632C212.582 73.6894 213.217 71.2694 213.852 69.2729L212.128 68.7889L210.404 68.2444C209.708 70.3619 209.073 72.9029 208.407 75.8675C207.772 78.832 207.136 82.1897 206.562 86.0013C205.957 89.8733 205.412 93.7453 204.928 97.6778C204.444 101.61 204.051 105.21 203.718 108.477L203.627 109.415L194.734 108.326L193.947 108.235V107.418C193.947 105.724 194.068 103.698 194.25 101.338C194.431 98.9786 194.704 96.4376 195.067 93.6848C195.188 92.6866 194.492 91.8093 193.524 91.6581C192.556 91.5068 191.618 92.2026 191.467 93.1706L193.252 93.4428L195.067 93.6848C195.43 90.932 195.823 88.1793 196.246 85.3358C196.791 81.7965 197.396 78.348 198.061 75.0204C198.727 71.6929 199.362 68.7587 200.028 66.2479L200.239 65.4311L210.706 67.2462L210.373 68.2444L212.128 68.7889Z" fill="#050505"/>
<path d="M212.128 68.7889L213.096 65.8244L198.939 63.3439L198.304 65.7639C197.638 68.3352 196.973 71.2694 196.307 74.6575C195.642 78.0152 195.037 81.4637 194.462 85.0333C194.008 87.8768 193.615 90.6598 193.252 93.4126C192.889 96.1653 192.617 98.7668 192.435 101.157C192.224 103.546 192.133 105.603 192.133 107.388V109.808L194.523 110.111L205.261 111.411L205.534 108.628C205.866 105.361 206.26 101.792 206.713 97.8896C207.197 93.9873 207.712 90.1153 208.317 86.2735C208.922 82.4923 209.527 79.1647 210.162 76.2607C210.797 73.3264 211.463 70.8157 212.128 68.7889Z" fill="#FF000A"/>
<path d="M199.756 93.5336L200.361 91.8396C197.578 90.8413 194.825 89.601 192.072 88.149C190.923 87.544 189.773 86.818 188.594 86.0618L187.595 87.5743L188.17 89.2985C188.503 89.1775 188.805 89.0868 189.138 88.9658C191.377 88.1188 193.373 86.9693 195.097 85.487C196.822 83.9745 198.183 82.1292 199.06 80.0117C199.937 77.9245 200.331 75.6255 200.331 73.2962H198.697L200.331 73.3567C200.331 73.3264 200.331 73.2962 200.331 73.2962H198.697L200.331 73.3567V73.2962V73.2659L198.576 73.2962H200.331V73.2659L198.576 73.2962H200.331C200.331 70.8459 199.937 68.4562 198.969 66.3084C198.274 64.6749 197.245 63.2229 195.975 61.9826C195.037 61.0449 193.948 60.2584 192.798 59.6231C191.044 58.6551 189.108 57.9896 187.021 57.5661C184.933 57.1426 182.695 56.9611 180.275 56.9611C174.648 56.9611 167.993 57.9291 160.128 59.7744L157.254 60.4399C156.77 60.5609 156.347 60.8634 156.105 61.3171C155.863 61.7709 155.802 62.2851 155.954 62.7691L160.098 75.7465C160.249 76.2002 160.582 76.5935 161.005 76.8052C161.429 77.017 161.943 77.0775 162.397 76.896L163.728 76.4422L163.153 74.7179L161.338 74.5667C161.187 76.0792 161.066 77.622 160.975 79.195C160.794 82.1292 160.642 85.0333 160.552 87.907C160.461 90.7808 160.4 93.4731 160.4 96.0443C160.4 98.7063 160.461 101.126 160.552 103.365L162.367 103.274L160.552 103.214L160.491 105.815C160.491 106.299 160.642 106.753 161.005 107.116C161.338 107.479 161.792 107.66 162.276 107.691L176.191 107.993C176.705 107.993 177.189 107.812 177.552 107.449C177.915 107.086 178.097 106.571 178.066 106.087L177.855 102.881L176.04 103.002H177.855C177.855 100.642 177.855 98.3433 177.885 96.1351C177.885 95.8628 177.885 95.6208 177.885 95.3486H176.07L174.92 96.7703C176.614 98.1618 178.399 99.4928 180.244 100.854C182.15 102.215 184.086 103.486 186.052 104.635C188.079 105.815 190.076 106.783 192.072 107.509L193.978 108.175C194.734 108.447 195.581 108.205 196.035 107.539L204.656 96.0141C204.989 95.5603 205.11 94.9553 204.929 94.4108C204.747 93.8663 204.354 93.4126 203.809 93.2311L200.331 91.9908L199.756 93.5336L199.151 95.2276L200.3 95.6511L193.948 104.151L193.313 103.94C191.558 103.304 189.773 102.457 187.898 101.368C186.022 100.279 184.207 99.0694 182.362 97.7686C180.547 96.4678 178.853 95.1671 177.219 93.8361C176.675 93.3823 175.949 93.2916 175.314 93.5941C174.678 93.8966 174.285 94.5318 174.285 95.2276C174.285 95.4998 174.285 95.7418 174.285 96.0141C174.255 98.2526 174.255 100.552 174.255 102.911V103.032L174.346 104.272L164.212 104.061L164.242 103.274V103.153C164.151 100.975 164.091 98.6156 164.091 95.9838C164.091 93.4731 164.151 90.811 164.242 87.9675C164.333 85.1543 164.484 82.2805 164.666 79.3765C164.756 77.8337 164.877 76.3515 165.029 74.8389C165.089 74.2339 164.817 73.6289 164.363 73.2659C163.909 72.9029 163.244 72.7819 162.669 72.9634L161.338 73.4172L161.913 75.1414L163.637 74.5969L160.068 63.4951L161.036 63.2834C168.749 61.4684 175.162 60.5609 180.365 60.5609C182.604 60.5609 184.6 60.7424 186.415 61.1054C188.2 61.4684 189.804 62.0129 191.165 62.7691C192.072 63.2834 192.889 63.8581 193.585 64.5539C194.523 65.4614 195.249 66.5504 195.793 67.7302C196.489 69.3334 196.852 71.2089 196.852 73.2659V73.2962L198.606 73.2659H196.852V73.2962L198.606 73.2659H196.852H198.667L196.852 73.2054C196.852 73.2357 196.852 73.2659 196.852 73.2659H198.092H196.852H198.092H196.852C196.852 75.202 196.519 76.9867 195.854 78.59C195.188 80.163 194.16 81.5847 192.829 82.7342C191.498 83.914 189.864 84.8518 187.989 85.5475C187.716 85.6383 187.444 85.729 187.172 85.85C186.506 86.0618 186.052 86.6365 185.931 87.3323C185.81 88.028 186.143 88.6935 186.718 89.0868C187.989 89.9338 189.229 90.69 190.499 91.3858C193.373 92.9286 196.307 94.2293 199.272 95.2881L199.756 93.5336ZM184.57 72.4189L183.693 73.9919L183.995 73.5079L183.602 73.9012C183.632 73.9314 183.693 73.9617 183.693 73.9617L183.995 73.4777L183.602 73.8709L184.873 72.5702L183.572 73.8407L184.086 73.3264L183.542 73.7802C183.572 73.8104 183.572 73.8104 183.572 73.8104L184.086 73.2962L183.542 73.7499L184.479 72.9634L183.421 73.5684C183.451 73.6289 183.511 73.7197 183.542 73.7499L184.479 72.9634L183.421 73.5684L184.389 73.0239L183.39 73.5079C183.39 73.5382 183.421 73.5684 183.421 73.5987L184.389 73.0542L183.39 73.5382L183.905 73.2962L183.36 73.5079V73.5382L183.874 73.2962L183.33 73.5079L185.024 72.8122L183.33 73.4474L183.874 73.2357L183.3 73.3264C183.3 73.3264 183.3 73.3869 183.33 73.4474L183.874 73.2357L183.3 73.3264L183.39 73.2962L183.3 73.3264L183.39 73.2962L183.3 73.3264V73.3567C183.3 73.3567 183.3 73.3869 183.3 73.4172C183.3 73.5079 183.3 73.5382 183.3 73.5382L183.602 73.5987L183.33 73.4777L183.3 73.5382L183.602 73.5987L183.33 73.4777L184.994 74.1734L183.33 73.4474L183.511 73.5382L183.33 73.4474L183.511 73.5382L183.33 73.4474L183.905 73.7499L183.39 73.3567C183.36 73.3869 183.33 73.4474 183.33 73.4777L183.905 73.7802L183.39 73.3869L183.753 73.6894L183.421 73.3567L183.39 73.3869L183.753 73.6894L183.421 73.3567L183.542 73.4474L183.421 73.3264L183.542 73.4172L183.421 73.2962L183.36 73.3567L184.631 74.6272L183.421 73.2659C183.239 73.4172 183.027 73.5684 182.725 73.7499C182.422 73.9012 182.029 74.0524 181.575 74.2037C180.426 74.5364 179.186 74.7785 177.824 74.8995C177.34 74.9297 176.887 74.9902 176.403 75.0205L176.524 76.8355L178.339 76.9262C178.369 76.2305 178.399 75.5045 178.46 74.8087C178.52 73.8407 178.581 72.8727 178.641 71.8744L176.826 71.7534L177.008 73.5684C177.189 73.5382 177.371 73.5382 177.492 73.5079C178.339 73.4474 179.125 73.4172 179.881 73.4172H179.912V72.5702V73.4172V72.5702V73.4172C181.061 73.4172 181.999 73.5079 182.634 73.6289C182.937 73.6894 183.209 73.7499 183.39 73.8104C183.572 73.8709 183.693 73.9314 183.693 73.9314L184.57 72.4189L185.478 70.8459C185.175 70.6947 184.873 70.5434 184.51 70.4224C184.147 70.3014 183.723 70.2107 183.269 70.1199C182.332 69.9384 181.212 69.8477 179.881 69.8477H179.851H179.881C179.034 69.8477 178.127 69.8779 177.219 69.9687C177.008 69.9989 176.826 69.9989 176.705 70.0292C175.828 70.1199 175.132 70.8157 175.072 71.7232C175.011 72.7214 174.951 73.6894 174.89 74.6877C174.86 75.4137 174.83 76.1397 174.769 76.8355C174.739 77.3497 174.951 77.864 175.314 78.227C175.677 78.59 176.191 78.7715 176.705 78.7412C177.189 78.711 177.673 78.6807 178.187 78.6202C179.76 78.469 181.243 78.1967 182.634 77.8035C183.3 77.5917 183.905 77.3497 184.449 77.0775C184.994 76.8052 185.447 76.4725 185.871 76.1095L185.962 76.0187L184.691 74.7482L185.901 76.1095C186.052 75.9582 186.234 75.807 186.355 75.5952C186.506 75.4137 186.597 75.202 186.688 75.0205V74.9902C186.778 74.8087 186.839 74.5667 186.899 74.3247C186.96 74.0827 186.96 73.8104 186.96 73.5382C186.96 73.2962 186.93 73.0542 186.899 72.8424C186.869 72.6307 186.809 72.4189 186.748 72.2677L186.718 72.2374C186.688 72.1769 186.658 72.1164 186.627 72.0257C186.567 71.9047 186.476 71.7837 186.385 71.6627C186.294 71.5417 186.204 71.4509 186.143 71.3904L186.113 71.3602C185.931 71.1787 185.72 71.0274 185.447 70.8762L184.57 72.4189Z" fill="#050505"/>
<path d="M199.757 93.5336C196.883 92.5051 194.039 91.2346 191.226 89.722C190.016 89.0868 188.806 88.3305 187.596 87.544C187.899 87.4533 188.201 87.3323 188.504 87.2415C190.561 86.455 192.376 85.4265 193.918 84.0955C195.431 82.7645 196.641 81.131 197.397 79.2857C198.184 77.4405 198.547 75.4137 198.547 73.2659C198.547 70.9972 198.184 68.8797 197.337 67.0042C196.732 65.5824 195.854 64.3119 194.735 63.2531C193.918 62.4364 192.981 61.7709 191.922 61.1961C190.379 60.3189 188.594 59.7139 186.658 59.3206C184.722 58.9274 182.575 58.7459 180.245 58.7459C174.831 58.7459 168.296 59.6836 160.492 61.5289L157.618 62.1944L161.762 75.1717L163.093 74.718C162.942 76.2305 162.851 77.743 162.73 79.2857C162.549 82.22 162.398 85.0938 162.307 87.9373C162.216 90.7808 162.156 93.4731 162.156 96.0141C162.156 98.6458 162.216 101.066 162.307 103.244L162.246 105.845L176.162 106.148L175.95 102.941C175.95 100.582 175.95 98.2828 175.98 96.0443C175.98 95.7721 175.98 95.4998 175.98 95.2578C177.644 96.6191 179.398 97.9501 181.213 99.2811C183.089 100.612 184.964 101.852 186.87 102.972C188.836 104.121 190.742 105.029 192.587 105.694L194.493 106.36L203.114 94.8343L199.757 93.5336ZM184.571 72.4189C184.722 72.5097 184.813 72.5702 184.874 72.6307C184.964 72.7214 184.995 72.7819 185.055 72.9029C185.085 73.0239 185.146 73.2054 185.146 73.5079C185.146 73.8709 185.085 74.113 185.025 74.2642C184.964 74.4457 184.874 74.5667 184.692 74.718C184.39 74.96 184.057 75.202 183.633 75.444C183.21 75.6557 182.726 75.8675 182.151 76.0187C180.881 76.3817 179.519 76.654 178.067 76.775C177.583 76.8052 177.099 76.8657 176.615 76.896C176.646 76.17 176.676 75.4742 176.736 74.7482C176.797 73.7802 176.857 72.7819 176.918 71.8139C177.099 71.7837 177.251 71.7837 177.432 71.7534C178.309 71.6929 179.156 71.6324 179.973 71.6324C181.213 71.6324 182.242 71.7232 183.028 71.8744C183.724 72.0559 184.269 72.2677 184.571 72.4189Z" fill="#FF000A"/>
<path d="M163.789 67.3974L165.574 67.6697L166.058 64.5842C166.148 64.0699 165.997 63.5254 165.664 63.1321C165.332 62.7389 164.817 62.4969 164.303 62.4969L149.934 62.2549C148.997 62.2246 148.18 62.9506 148.089 63.8884L147.847 66.3689C147.575 69.0612 147.393 72.1165 147.272 75.565C147.151 79.0135 147.091 82.5528 147.091 86.1828C147.091 89.0566 147.121 91.9001 147.212 94.7133C147.242 95.7116 148.059 96.4981 149.057 96.4678C150.055 96.4678 150.842 95.6511 150.842 94.6528H149.027L147.212 94.7133C147.303 97.5266 147.424 100.128 147.605 102.548C147.787 104.968 147.998 107.086 148.301 108.87L148.664 111.26C148.815 112.168 149.602 112.833 150.509 112.803L152.929 112.712L163.728 112.319C164.212 112.289 164.666 112.077 164.999 111.714C165.332 111.351 165.483 110.867 165.483 110.383L165.332 107.6C165.15 104.363 164.969 100.763 164.848 96.8309C164.696 92.9286 164.636 89.0566 164.636 85.1845C164.636 81.4033 164.727 78.0152 164.878 75.1112C165.059 72.177 165.301 69.6662 165.604 67.6092L163.789 67.3974L162.004 67.1252C161.671 69.3334 161.399 71.935 161.218 74.96C161.036 77.985 160.945 81.4033 160.945 85.245C160.945 89.1473 161.006 93.0798 161.157 97.0124C161.308 100.975 161.46 104.575 161.641 107.872L161.702 108.81L152.748 109.112L151.931 109.143L151.81 108.356C151.538 106.692 151.326 104.666 151.175 102.306C150.993 99.9466 150.872 97.3754 150.781 94.6226C150.751 93.6243 149.934 92.8378 148.936 92.8681C147.938 92.8681 147.151 93.6848 147.151 94.6831H148.966L150.781 94.6226C150.691 91.8698 150.66 89.0566 150.66 86.213C150.66 82.6133 150.721 79.1345 150.842 75.7465C150.963 72.3585 151.144 69.3637 151.417 66.7622L151.507 65.9454L162.125 66.1269L161.974 67.1554L163.789 67.3974Z" fill="#050505"/>
<path d="M163.788 67.3974L164.272 64.3119L149.904 64.0699L149.662 66.5504C149.389 69.1822 149.208 72.2072 149.087 75.6255C148.966 79.0437 148.905 82.5528 148.905 86.1525C148.905 89.0263 148.936 91.8396 149.026 94.6226C149.117 97.4056 149.238 100.007 149.42 102.397C149.601 104.787 149.813 106.844 150.085 108.598L150.448 110.988L152.868 110.897L163.667 110.504L163.516 107.721C163.335 104.454 163.153 100.854 163.032 96.9216C162.881 92.9891 162.82 89.0868 162.82 85.2148C162.82 81.4033 162.911 77.985 163.062 75.0205C163.214 72.0862 163.456 69.5452 163.788 67.3974Z" fill="#FF000A"/>
<path d="M149.692 98.6761L150.297 96.9821C147.514 95.9838 144.762 94.7436 142.009 93.2916C140.859 92.6866 139.71 91.9606 138.53 91.2043L137.532 92.7168L138.107 94.4411C138.439 94.3201 138.742 94.2293 139.075 94.1083C141.313 93.2613 143.31 92.1118 145.034 90.6296C146.758 89.117 148.119 87.2718 148.997 85.1543C149.874 83.067 150.267 80.768 150.267 78.4387H148.755L150.267 78.469V78.4387H148.755L150.267 78.469V78.4387V78.4085L148.573 78.4387H150.267V78.4085L148.573 78.4387H150.267C150.267 75.9885 149.874 73.5987 148.906 71.4509C148.21 69.8174 147.182 68.3654 145.911 67.1252C144.973 66.1874 143.884 65.4009 142.735 64.7656C140.98 63.7976 139.044 63.1321 136.957 62.7086C134.87 62.2851 132.631 62.1036 130.211 62.1036C124.585 62.1036 117.93 63.0716 110.065 64.9169L107.191 65.5824C106.707 65.7034 106.283 66.0059 106.041 66.4597C105.799 66.9134 105.739 67.4277 105.89 67.9117L110.034 80.889C110.186 81.3427 110.518 81.736 110.942 81.9477C111.365 82.1595 111.88 82.22 112.333 82.0385L113.664 81.5848L113.09 79.8605L111.275 79.7092C111.123 81.2217 111.002 82.7645 110.912 84.3375C110.73 87.2718 110.579 90.1758 110.488 93.0496C110.397 95.9233 110.337 98.6156 110.337 101.187C110.337 103.849 110.397 106.269 110.488 108.507L112.303 108.417L110.488 108.356L110.428 110.958C110.428 111.442 110.579 111.895 110.942 112.258C111.275 112.621 111.728 112.803 112.212 112.833L126.127 113.136C126.642 113.136 127.126 112.954 127.489 112.591C127.852 112.228 128.033 111.714 128.003 111.23L127.791 108.023L125.976 108.144H127.791C127.791 105.785 127.791 103.486 127.821 101.278C127.821 101.005 127.821 100.763 127.821 100.491H126.006L124.857 101.913C126.551 103.304 128.336 104.635 130.181 105.997C132.087 107.358 134.023 108.628 135.989 109.778C138.016 110.958 140.012 111.926 142.009 112.652L143.915 113.317C144.671 113.589 145.518 113.347 145.972 112.682L154.593 101.157C154.926 100.703 155.047 100.098 154.865 99.5534C154.714 99.0089 154.29 98.5551 153.746 98.3736L150.267 97.1333L149.692 98.6761L149.087 100.37L150.237 100.794L143.884 109.294L143.249 109.082C141.495 108.447 139.71 107.6 137.834 106.511C135.959 105.422 134.144 104.212 132.298 102.911C130.483 101.61 128.789 100.31 127.156 98.9786C126.611 98.5249 125.885 98.4341 125.25 98.7366C124.615 99.0391 124.222 99.6744 124.222 100.37C124.222 100.642 124.222 100.884 124.222 101.157C124.191 103.395 124.191 105.694 124.191 108.054V108.175L124.282 109.415L114.148 109.203L114.179 108.417V108.296C114.088 106.118 114.027 103.758 114.027 101.126C114.027 98.6156 114.088 95.9536 114.179 93.1101C114.269 90.2968 114.421 87.423 114.602 84.519C114.693 82.9763 114.814 81.494 114.965 79.9815C115.026 79.3765 114.753 78.7715 114.3 78.4085C113.846 78.0455 113.18 77.9245 112.606 78.106L111.275 78.5597L111.849 80.284L113.574 79.7395L110.004 68.6377L110.972 68.4259C118.686 66.6109 125.099 65.7034 130.302 65.7034C132.54 65.7034 134.537 65.8849 136.352 66.2479C138.137 66.6109 139.74 67.1554 141.101 67.9117C142.009 68.4259 142.826 69.0007 143.521 69.6964C144.459 70.6039 145.185 71.6929 145.73 72.8727C146.425 74.476 146.788 76.3515 146.788 78.4085V78.4387L148.452 78.4085H146.788V78.4387L148.452 78.4085H146.788H148.603L146.788 78.3782V78.4085H147.272H146.788H147.272H146.788C146.788 80.3445 146.456 82.1292 145.79 83.7325C145.125 85.3055 144.096 86.7273 142.765 87.8768C141.434 89.0565 139.801 89.9943 137.925 90.6901C137.653 90.7808 137.381 90.8716 137.108 90.9926C136.443 91.2043 135.989 91.7791 135.868 92.4748C135.777 93.1706 136.08 93.8361 136.655 94.2293C137.925 95.0763 139.165 95.8326 140.436 96.5283C143.31 98.0711 146.244 99.3719 149.208 100.431L149.692 98.6761ZM134.477 77.5615L133.599 79.1345L133.902 78.6505L133.508 79.0437C133.539 79.074 133.599 79.1042 133.599 79.1042L133.902 78.6202L133.508 79.0135L134.779 77.7127L133.478 78.9832L133.992 78.469L133.448 78.9227C133.478 78.953 133.478 78.953 133.478 78.953L133.992 78.4387L133.448 78.8925L134.386 78.106L133.327 78.711C133.357 78.7715 133.418 78.8622 133.448 78.8925L134.386 78.106L133.327 78.711L134.113 78.2572L133.266 78.59C133.266 78.59 133.297 78.6202 133.327 78.711L134.113 78.2572L133.266 78.59L134.961 77.8942L133.266 78.5597L133.811 78.348L133.236 78.4387C133.236 78.4387 133.236 78.4992 133.266 78.5597L133.811 78.348L133.236 78.4387L133.357 78.4085L133.236 78.4387L133.357 78.4085L133.236 78.4387V78.469C133.236 78.469 133.236 78.4992 133.236 78.5295C133.236 78.6202 133.236 78.6505 133.236 78.6505L133.539 78.711L133.266 78.59L133.236 78.6505L133.539 78.711L133.266 78.59L134.93 79.2857L133.266 78.5597L133.448 78.6505L133.266 78.5597L133.448 78.6505L133.266 78.5597L133.841 78.8622L133.327 78.469C133.297 78.4992 133.266 78.5597 133.266 78.59L133.841 78.8925L133.327 78.4992L133.72 78.8017L133.357 78.469L133.327 78.4992L133.72 78.8017L133.357 78.469L133.478 78.59L133.357 78.469L133.478 78.59L133.357 78.469L134.567 79.8302L133.448 78.4085L133.387 78.469C133.206 78.6202 132.994 78.7715 132.692 78.953C132.389 79.1042 131.996 79.2555 131.542 79.4067C130.393 79.7395 129.152 79.9815 127.791 80.1025C127.307 80.1327 126.853 80.1932 126.369 80.2235L126.49 82.0385L128.305 82.1293C128.336 81.4335 128.366 80.7075 128.426 80.0117C128.487 79.0437 128.547 78.0757 128.608 77.0775L126.793 76.9565L126.974 78.7715C127.156 78.7412 127.337 78.7412 127.458 78.711C128.305 78.6505 129.092 78.6202 129.848 78.6202H129.878V77.7732V78.6202V77.7732V78.6202C131.028 78.6202 131.966 78.711 132.601 78.832C132.903 78.8925 133.176 78.953 133.357 79.0135C133.539 79.074 133.66 79.1345 133.66 79.1345L134.477 77.5615L135.384 75.9885C135.082 75.8372 134.779 75.686 134.416 75.565C134.053 75.444 133.629 75.3532 133.176 75.2625C132.238 75.081 131.119 74.9902 129.788 74.9902H129.757H129.788C128.941 74.9902 128.033 75.0205 127.126 75.1112C126.914 75.1415 126.732 75.1415 126.611 75.1717C125.734 75.2625 125.038 75.9582 124.978 76.8657C124.917 77.864 124.857 78.832 124.796 79.8302C124.766 80.5562 124.736 81.2822 124.675 81.978C124.645 82.4923 124.857 83.0065 125.22 83.3695C125.583 83.7325 126.097 83.914 126.611 83.8838C127.095 83.8535 127.579 83.8233 128.094 83.7628C129.667 83.6115 131.149 83.3393 132.54 82.946C133.206 82.7343 133.811 82.4923 134.356 82.22C134.9 81.9477 135.354 81.615 135.777 81.252L134.567 79.8907L135.687 81.3125L135.777 81.252C135.929 81.1007 136.11 80.9495 136.231 80.7377C136.382 80.5562 136.473 80.3445 136.564 80.163V80.1327C136.655 79.9512 136.715 79.7092 136.776 79.4672C136.836 79.2252 136.836 78.953 136.836 78.6807C136.836 78.4387 136.806 78.1967 136.776 77.985C136.745 77.7732 136.685 77.5615 136.624 77.4102V77.38C136.594 77.3195 136.564 77.259 136.534 77.1682C136.473 77.0472 136.382 76.9262 136.292 76.8052C136.201 76.6842 136.11 76.5935 136.05 76.533L136.019 76.5027C135.838 76.3212 135.626 76.17 135.354 76.0187L134.477 77.5615Z" fill="#050505"/>
<path d="M149.692 98.6761C146.818 97.6476 143.975 96.3771 141.162 94.8646C139.952 94.2293 138.742 93.4731 137.532 92.6866C137.834 92.5958 138.137 92.4748 138.439 92.3841C140.496 91.5976 142.311 90.5691 143.854 89.238C145.366 87.907 146.576 86.2735 147.333 84.4283C148.119 82.583 148.482 80.5562 148.482 78.4085C148.482 76.1397 148.119 74.0222 147.272 72.1467C146.667 70.7249 145.79 69.4544 144.671 68.3957C143.854 67.5789 142.916 66.9134 141.857 66.3387C140.315 65.4614 138.53 64.8564 136.594 64.4631C134.658 64.0699 132.51 63.8884 130.181 63.8884C124.766 63.8884 118.232 64.8261 110.427 66.6714L107.554 67.3369L111.698 80.3142L113.029 79.8605C112.878 81.373 112.787 82.8855 112.666 84.4283C112.484 87.3625 112.333 90.2363 112.242 93.0798C112.152 95.9233 112.091 98.6156 112.091 101.157C112.091 103.788 112.152 106.208 112.242 108.386L112.182 110.988L126.097 111.29L125.885 108.084C125.885 105.724 125.885 103.425 125.916 101.187C125.916 100.915 125.916 100.642 125.916 100.4C127.579 101.762 129.334 103.093 131.149 104.424C133.024 105.755 134.9 106.995 136.806 108.114C138.772 109.264 140.678 110.171 142.523 110.837L144.429 111.502L153.05 99.9769L149.692 98.6761ZM134.476 77.5615C134.628 77.6522 134.718 77.7127 134.779 77.7732C134.87 77.864 134.9 77.9245 134.96 78.0455C134.991 78.1665 135.051 78.348 135.051 78.6505C135.051 79.0135 134.991 79.2555 134.93 79.4067C134.87 79.5882 134.779 79.7092 134.597 79.8605C134.295 80.1025 133.962 80.3445 133.539 80.5865C133.115 80.7982 132.631 81.01 132.056 81.1612C130.786 81.5242 129.425 81.7965 127.973 81.9175C127.489 81.9477 127.005 82.0083 126.521 82.0385C126.551 81.3125 126.581 80.6167 126.642 79.8907C126.702 78.9227 126.763 77.9245 126.823 76.9565C127.005 76.9262 127.156 76.9262 127.337 76.896C128.215 76.8355 129.062 76.775 129.878 76.775C131.119 76.775 132.147 76.8657 132.934 77.017C133.629 77.1985 134.174 77.4102 134.476 77.5615Z" fill="#FF000A"/>
<path d="M109.339 74.839H111.154V74.7482C111.033 72.1769 110.821 69.3637 110.579 66.2782L110.367 63.5859C110.276 62.5876 109.429 61.8616 108.431 61.9221L94.2437 63.0111C93.7597 63.0414 93.3059 63.2834 93.0034 63.6464C92.7009 64.0094 92.5497 64.4934 92.5799 64.9774L92.8219 67.7302C93.0639 70.5434 93.2757 73.2054 93.4269 75.686C93.5782 78.106 93.6689 80.647 93.6689 83.2183C93.6689 84.5795 93.6387 86.0618 93.6084 87.6045C93.5782 88.996 93.4269 90.3573 93.2152 91.6883C93.0034 92.8681 92.7009 93.8663 92.3379 94.7133L92.3077 94.7436C92.0959 95.1973 92.0959 95.6813 92.2472 96.1351C92.4287 96.5888 92.7614 96.9518 93.1849 97.1636C93.6387 97.3753 94.1227 97.3753 94.5765 97.2241C95.0302 97.0426 95.3932 96.7098 95.605 96.2863L95.6352 96.2561C95.847 95.8326 95.847 95.3183 95.6957 94.8646C95.5142 94.4108 95.1815 94.0478 94.758 93.8361C94.3345 93.6243 93.8202 93.6243 93.3664 93.7756C92.9127 93.9571 92.5497 94.2898 92.3379 94.7133C92.1867 95.0158 92.0657 95.2578 91.9144 95.4393C91.7632 95.6208 91.6119 95.7721 91.4304 95.8931L92.4892 97.3753L91.6724 95.7418C91.5817 95.8023 91.5212 95.8326 91.4304 95.8931C91.4002 95.9233 91.3699 95.9233 91.3094 95.9536C91.2489 95.9838 91.1884 96.0141 91.0674 96.0443C90.8557 96.1048 90.5229 96.1653 90.0389 96.1653V97.9198L90.0692 96.1653H90.0389V97.9198L90.0692 96.1653C90.0692 96.1653 89.9784 96.1653 89.8272 96.1653L90.0389 97.9803V96.1653C89.6457 96.1653 89.4037 96.1048 89.2827 96.0746C89.1919 96.0443 89.1617 96.0443 89.1314 96.0141L89.0709 95.9838L87.9819 97.4358L89.1012 95.9838C88.9197 95.8628 88.7987 95.7116 88.6777 95.5301C88.5567 95.3486 88.4054 95.1368 88.2844 94.8343L88.2542 94.7436L86.6206 95.5603L88.2844 94.8343C87.9214 94.0176 87.6492 93.0193 87.4677 91.8396C87.2559 90.5388 87.1349 89.2078 87.1047 87.8465C87.0442 86.3643 87.0442 84.9728 87.0442 83.7023C87.0442 82.0385 87.0744 80.4352 87.1349 78.8925V78.832H85.3199L87.1349 78.8925C87.1954 77.38 87.3164 75.7465 87.4677 73.992L85.6526 73.8104L87.4374 74.1129L87.4677 73.992C87.6189 72.2677 87.8609 70.2409 88.1937 67.9722L88.5869 65.0681C88.6474 64.5539 88.5264 64.0699 88.1937 63.6766C87.8609 63.2834 87.4072 63.0414 86.8929 63.0111L72.6753 62.1641C71.7073 62.1036 70.8906 62.7994 70.7696 63.7674L70.467 66.3084C70.225 68.3049 70.0133 70.7249 69.8318 73.5684C69.62 76.4725 69.5293 79.437 69.5293 82.4923C69.5293 85.1845 69.62 87.8465 69.8015 90.4783C69.983 93.2613 70.4065 95.9233 71.0721 98.4341C71.3141 99.4021 72.3123 99.9769 73.2803 99.7349C74.2483 99.4929 74.8231 98.4946 74.5811 97.5266L72.8266 97.9803L71.0721 98.4341C71.7678 101.096 72.8871 103.577 74.3996 105.755C75.2163 106.934 76.1843 107.993 77.2733 108.901C78.3623 109.808 79.5724 110.595 80.9034 111.23L81.6899 109.596L80.6916 111.109C80.7521 111.139 80.8429 111.2 80.9034 111.23C82.2949 111.895 83.8074 112.379 85.4106 112.682C87.0139 112.984 88.6777 113.136 90.4322 113.136C92.1262 113.136 93.7597 113.015 95.3025 112.712C96.8452 112.41 98.3275 111.986 99.719 111.351L99.7795 111.321L98.9627 109.687L99.719 111.321C101.02 110.716 102.23 109.959 103.349 109.082C104.438 108.175 105.436 107.146 106.253 105.997L104.771 104.938L106.223 106.027L106.253 105.997C107.796 103.849 108.945 101.399 109.702 98.7366C110.428 96.1653 110.881 93.4428 111.123 90.5086C111.335 87.7255 111.456 84.8518 111.456 81.857C111.456 79.6487 111.396 77.259 111.275 74.6877L109.339 74.839H111.154H109.339L107.524 74.9297C107.645 77.4707 107.705 79.8 107.705 81.9175C107.705 84.8215 107.614 87.6045 107.403 90.2968C107.191 93.0193 106.767 95.4998 106.102 97.7988C105.436 100.128 104.468 102.155 103.228 103.909L104.71 104.968L103.258 103.879L103.228 103.909C102.593 104.787 101.836 105.603 100.959 106.299C100.112 106.995 99.1442 107.57 98.0855 108.084L98.025 108.114L98.8417 109.748L98.0855 108.114C97.0267 108.598 95.847 108.961 94.5462 109.203C93.2454 109.445 91.8539 109.566 90.3414 109.566C88.7684 109.566 87.3164 109.445 86.0156 109.173C84.6846 108.931 83.4746 108.538 82.4159 108.023L81.6294 109.657L82.6276 108.144C82.5671 108.114 82.4764 108.054 82.4159 108.023C81.3571 107.509 80.3891 106.904 79.5421 106.178C78.6951 105.452 77.9388 104.635 77.3036 103.728C76.0633 101.943 75.1256 99.8861 74.5206 97.5871C74.2786 96.6191 73.2803 96.0443 72.3123 96.2863C71.3443 96.5283 70.7696 97.5266 71.0116 98.4946L72.7661 98.0408L74.5206 97.5871C73.9156 95.3183 73.5223 92.8681 73.3408 90.2968C73.1593 87.7558 73.0686 85.1543 73.0686 82.5527C73.0686 79.5882 73.1593 76.7145 73.3408 73.8709C73.5223 71.0577 73.7341 68.6982 73.9761 66.7924L74.0668 65.9454L84.6241 66.5807L84.5031 67.5487C84.2006 69.8477 83.9586 71.9047 83.7771 73.6894L85.5921 73.8709L83.8074 73.5684L83.7771 73.6894C83.5956 75.5045 83.4746 77.1985 83.4141 78.7715V78.832H85.2291L83.4141 78.7715C83.3536 80.3747 83.3234 82.0082 83.3234 83.7325C83.3234 85.0635 83.3536 86.4853 83.3839 87.9978C83.4444 89.48 83.5654 90.9623 83.8074 92.4446C84.0494 93.8966 84.3821 95.1671 84.8964 96.3166L84.9266 96.4073L86.5602 95.5906L84.8964 96.3166C85.1384 96.8611 85.4106 97.3451 85.7434 97.7686C86.0761 98.1921 86.4392 98.5551 86.8627 98.8878H86.8929C87.0744 99.0391 87.2862 99.1601 87.5282 99.2811C87.7702 99.4021 88.0122 99.4929 88.2542 99.5534C88.7684 99.7046 89.3734 99.7954 90.0692 99.7954C90.1599 99.7954 90.1902 99.7954 90.2809 99.7954L90.0692 98.0106V99.7954C90.0994 99.7954 90.1599 99.7954 90.2809 99.7954L90.0692 98.0106V99.7954V98.0408L90.0389 99.7954H90.0692V98.0408L90.0389 99.7954H90.0692C90.8254 99.7954 91.4909 99.7046 92.0657 99.5534C92.3379 99.4626 92.6102 99.3719 92.8522 99.2509C93.0942 99.1299 93.3362 99.0088 93.5177 98.8576L92.4589 97.3753L93.2757 99.0088C93.3664 98.9483 93.4269 98.9181 93.5177 98.8576C93.9714 98.5248 94.3647 98.1618 94.6975 97.7081C95.0302 97.2846 95.363 96.7703 95.605 96.2258C96.0285 95.3183 95.605 94.2293 94.6975 93.8361C93.7899 93.4126 92.7009 93.8361 92.3077 94.7436L92.2774 94.7738C91.8539 95.6813 92.2774 96.7703 93.1849 97.1636C94.0924 97.5871 95.1815 97.1938 95.5747 96.2561L95.605 96.2258C96.1495 95.0461 96.5125 93.7453 96.7545 92.2933C96.9965 90.8111 97.1477 89.2683 97.2082 87.7255C97.2687 86.1223 97.2687 84.64 97.2687 83.2183C97.2687 80.5562 97.178 77.9547 97.0267 75.444C96.8755 72.9332 96.6637 70.2409 96.4217 67.3974L96.331 66.4899L106.888 65.6731L106.949 66.5807C107.191 69.6359 107.403 72.4189 107.524 74.9297L109.339 74.839H107.524V74.9297L109.339 74.839Z" fill="#050505"/>
<path d="M109.338 74.839C109.217 72.2979 109.005 69.4847 108.763 66.4294L108.551 63.7371L94.364 64.8261L94.6061 67.5789C94.8481 70.3922 95.0598 73.0844 95.2111 75.565C95.3623 78.0455 95.4531 80.5865 95.4531 83.2183C95.4531 84.6098 95.4228 86.092 95.3926 87.665C95.3623 89.1473 95.2111 90.5993 94.9691 91.9908C94.7573 93.3218 94.3943 94.4713 93.9405 95.4696L93.9103 95.4998L93.9405 95.4696C93.7288 95.8931 93.517 96.2561 93.275 96.5888C93.033 96.8913 92.7608 97.1636 92.428 97.3753C92.186 97.5568 91.9138 97.6778 91.5205 97.7988C91.1273 97.9198 90.6433 97.9803 90.008 97.9803C89.4635 97.9803 89.04 97.9198 88.7073 97.8291C88.3745 97.7383 88.1325 97.6173 87.9208 97.4358C87.6183 97.2241 87.3763 96.9518 87.1343 96.6493C86.8923 96.3468 86.7108 95.9838 86.5293 95.5603C86.1057 94.5923 85.773 93.4428 85.5915 92.1421C85.3797 90.7506 85.2285 89.359 85.1982 87.9373C85.1377 86.4248 85.1377 85.0333 85.1377 83.7325C85.1377 82.0687 85.168 80.4352 85.2285 78.8622C85.289 77.3195 85.41 75.6557 85.5612 73.8709C85.7427 72.0862 85.9848 70.0594 86.2873 67.7907L86.6805 64.8866L72.4629 64.0396L72.1604 66.5807C71.9184 68.5469 71.7369 70.9367 71.5252 73.7499C71.3437 76.6237 71.2227 79.558 71.2227 82.5527C71.2227 85.2148 71.3134 87.8465 71.4949 90.4178C71.6764 93.1101 72.0697 95.6511 72.7049 98.0408C73.3704 100.521 74.3687 102.79 75.7602 104.756C76.4862 105.785 77.3634 106.723 78.3314 107.539C79.2995 108.356 80.3885 109.052 81.5682 109.627C82.8085 110.232 84.1697 110.655 85.6217 110.927C87.0738 111.2 88.6468 111.351 90.3105 111.351C91.9138 111.351 93.4263 111.23 94.8481 110.958C96.2698 110.685 97.6008 110.292 98.8108 109.717C99.9906 109.173 101.08 108.507 102.048 107.721C103.016 106.934 103.893 106.027 104.619 104.998C106.041 103.062 107.069 100.794 107.795 98.3131C108.491 95.8931 108.945 93.2613 109.156 90.448C109.368 87.7255 109.459 84.882 109.459 81.9477C109.55 79.7697 109.489 77.4102 109.338 74.839Z" fill="#FF000A"/>
<path d="M117.022 34.1222L118.716 33.5172L117.022 34.1222L118.746 33.5777C117.838 30.6132 116.356 27.8604 114.42 25.4707L112.998 26.6202L114.511 25.6219C114.48 25.5614 114.45 25.5312 114.39 25.4707C112.363 22.9599 109.731 20.9634 106.736 19.5416L106.646 19.5114L105.95 21.1751L106.736 19.5416C103.53 18.0291 99.9302 17.3031 96.0581 17.2426H96.0279V19.0576L96.0581 17.2426C94.1524 17.2124 92.3071 17.3636 90.5526 17.7266C88.7981 18.0896 87.1041 18.6341 85.5311 19.3904C82.5666 20.8424 79.9953 22.8389 77.9988 25.3799C76.093 27.7999 74.641 30.4922 73.673 33.4567C72.7352 36.3305 72.2512 39.2647 72.221 42.2595V42.2898H74.036L72.221 42.2595V42.2898C72.1907 45.5568 72.705 48.7633 73.8242 51.7581C74.9435 54.7528 76.577 57.4754 78.6945 59.8651C80.8423 62.2851 83.4741 64.1909 86.4083 65.5824C89.4636 67.0042 92.8214 67.6999 96.3304 67.7604V66.5504L96.3001 67.7604V66.5504L96.2699 67.7604L96.3001 66.1572L96.2396 67.7604H96.2699L96.3001 66.1572L96.2396 67.7604H96.3001H96.3304V66.5504L96.3001 67.7604V66.5504L96.2699 67.7604C99.5672 67.7907 102.774 67.2159 105.708 65.9757L105.859 65.9152L105.012 64.3119L105.708 65.9757C108.612 64.7354 111.183 62.9204 113.331 60.5911L112 59.3811L113.27 60.6819L113.331 60.6214C115.449 58.3224 117.082 55.5696 118.201 52.5446C119.351 49.4591 119.926 46.1013 119.986 42.5923H118.474L119.986 42.6225H118.474L119.986 42.6528L118.232 42.6225L119.986 42.7133V42.6528L118.232 42.6225L119.986 42.7133V42.6528H119.079H119.986H119.079H119.986C120.016 39.6277 119.593 36.633 118.685 33.7592L118.655 33.6685L117.022 34.1222L115.297 34.6667C116.084 37.2077 116.447 39.8092 116.417 42.441H117.294H116.417H117.294H116.417L118.232 42.4713L116.417 42.3805C116.417 42.4108 116.417 42.441 116.417 42.441H117.929L116.417 42.4108H117.929L116.417 42.3805C116.386 45.5265 115.872 48.4608 114.874 51.0926C113.875 53.7243 112.484 56.0536 110.699 57.9896L112.03 59.2299L110.76 57.9291L110.699 58.0199C108.914 59.9559 106.797 61.4684 104.347 62.4969L104.195 62.5574L105.042 64.1606L104.347 62.4969C101.896 63.5254 99.2344 64.0094 96.3909 63.9791H96.3606V65.1892L96.3909 63.9791V65.1892L96.4211 63.9791L96.3909 65.7942L96.4816 63.9791C96.4514 63.9791 96.4211 63.9791 96.4211 63.9791V64.8867V63.9791V64.8867V63.9791C93.3356 63.9489 90.5223 63.3439 87.9813 62.1641C85.4706 60.9844 83.2623 59.3811 81.4473 57.3241C79.6323 55.2973 78.2408 52.9681 77.2728 50.3968C76.3048 47.8256 75.851 45.0728 75.9115 42.2293V42.199H74.3385L75.9115 42.2293V42.199H74.3385L75.9115 42.2293C75.9418 39.5975 76.3653 37.0262 77.182 34.5155C77.9988 31.9745 79.239 29.6452 80.8725 27.5882C82.5363 25.5009 84.6538 23.8371 87.1646 22.5969C88.4351 21.9616 89.8266 21.5079 91.3088 21.2356C92.7911 20.9331 94.3944 20.8121 96.0581 20.8424H96.0884V19.2694L96.0581 20.8424H96.0884V19.2694L96.0581 20.8424C99.5369 20.9029 102.622 21.5381 105.224 22.7784L105.315 22.8086L106.01 21.1449L105.224 22.7784C107.795 24.0187 109.973 25.6824 111.637 27.7394L113.059 26.5899L111.546 27.5882C111.576 27.6487 111.607 27.6789 111.667 27.7394C113.331 29.7662 114.571 32.0955 115.358 34.6365L115.388 34.7272L117.022 34.1222L115.297 34.6667L117.022 34.1222ZM90.2199 49.6103L91.5509 48.37C90.8551 47.6138 90.3409 46.8273 89.9173 45.829L88.2536 46.5248L89.9476 45.8593V45.829C89.5846 44.9215 89.4031 44.014 89.4031 42.925C89.4333 41.594 89.5846 40.3235 89.8871 39.1135C90.1593 38.0245 90.5828 37.1775 91.1576 36.3607C91.3996 36.028 91.6416 35.7557 91.9744 35.4835C92.2769 35.2112 92.6399 34.9995 93.0634 34.7575L92.2466 33.124L92.7911 34.8482C92.8819 34.818 92.9726 34.7877 93.0634 34.7272C93.3961 34.576 93.7894 34.4247 94.3339 34.3037C94.8784 34.1827 95.5439 34.1222 96.3304 34.1525V32.398L96.2396 34.1525C96.3001 34.1525 96.3304 34.1525 96.3304 34.1525V32.398L96.2396 34.1525H96.3304C96.9354 34.1525 97.4799 34.2432 98.0244 34.3642C98.5689 34.5155 99.1134 34.697 99.6579 34.9995C100.112 35.2415 100.505 35.5137 100.898 35.8767C101.261 36.2397 101.624 36.6935 101.957 37.2682C102.229 37.722 102.441 38.2665 102.622 38.9925C102.774 39.7185 102.895 40.626 102.864 41.715L104.498 41.7453L102.864 41.715L104.498 41.7453L102.864 41.715C102.864 41.715 102.864 41.7453 102.864 41.7755L104.679 41.7453L102.864 41.715H103.53H102.864H103.53H102.864C102.834 43.0763 102.713 44.256 102.532 45.1938C102.35 46.1618 102.078 46.918 101.775 47.4625C101.443 48.128 101.08 48.6423 100.717 49.0356C100.354 49.4288 100.021 49.7011 99.6579 49.9128C99.1739 50.1851 98.7202 50.3666 98.2362 50.4876C97.7521 50.6086 97.2379 50.6691 96.6631 50.6691C95.6346 50.6388 94.8481 50.4573 94.0011 50.0641L93.9406 50.0338C93.5171 49.8221 93.0029 49.7918 92.5491 49.9733C92.0954 50.1548 91.7324 50.4573 91.5206 50.9111C91.3089 51.3346 91.2786 51.8488 91.4601 52.3026C91.6114 52.7563 91.9441 53.1193 92.3979 53.3311L92.4584 53.3613C93.3659 53.7848 94.4549 53.3916 94.8784 52.4841C95.3019 51.5766 94.9086 50.4876 94.0011 50.0641C93.0936 49.6406 92.3374 49.0961 91.6114 48.3398L90.2199 49.6103L88.8888 50.8506C89.8871 51.9093 91.0366 52.7563 92.3374 53.3613C92.7609 53.5731 93.2751 53.6033 93.7289 53.4218C94.1826 53.2706 94.5456 52.9378 94.7574 52.4841C94.9691 52.0303 94.9994 51.5463 94.8179 51.0926C94.6666 50.6388 94.3339 50.2758 93.8801 50.0641L93.8196 50.0338C92.9121 49.6103 91.8231 50.0036 91.3996 50.9111C90.9761 51.8186 91.3694 52.9076 92.2769 53.3311L92.3374 53.3613C93.6079 53.9663 95.0296 54.2991 96.5119 54.2991C97.3891 54.2991 98.2361 54.2083 99.0226 54.0268C99.8092 53.8151 100.596 53.5126 101.352 53.0891C102.078 52.6958 102.743 52.1513 103.318 51.5161C103.923 50.8506 104.437 50.0641 104.921 49.1566C105.375 48.2491 105.738 47.1903 105.98 45.95C106.222 44.7098 106.373 43.3485 106.373 41.7755H105.708H106.373H105.708H106.373V41.7453H104.619L106.373 41.7755V41.7453H104.619L106.373 41.7755L104.74 41.7453L106.373 41.7755L104.74 41.7453L106.373 41.7755C106.404 40.4445 106.283 39.2647 106.041 38.2362C105.799 37.1775 105.436 36.27 104.982 35.4532C104.498 34.6365 103.923 33.9105 103.318 33.3055C102.683 32.7005 101.987 32.1862 101.231 31.7929C100.444 31.3997 99.6579 31.0669 98.8109 30.8854C97.9941 30.6737 97.1471 30.5829 96.3001 30.5527L96.2699 32.3677L96.3606 30.5527C96.3304 30.5527 96.3001 30.5527 96.2699 30.5527V32.156L96.3001 30.5527V32.156L96.3304 30.5527C95.3321 30.5527 94.4246 30.6132 93.5776 30.7947C92.7609 30.9459 92.0046 31.2182 91.3694 31.5509L92.1861 33.1845L91.6416 31.4602C91.5509 31.4904 91.4601 31.5207 91.3694 31.5812C90.7038 31.914 90.0988 32.3072 89.5543 32.761C89.0098 33.2147 88.5561 33.729 88.1326 34.3037C87.2856 35.4835 86.6806 36.7842 86.3176 38.2665C85.9243 39.779 85.7428 41.3218 85.7126 42.925C85.6823 44.4375 85.9546 45.8895 86.5293 47.2508L88.1931 46.555L86.5293 47.1903V47.2205C87.1041 48.5818 87.8906 49.8221 88.8888 50.8808L90.2199 49.6103Z" fill="#050505"/>
<path d="M117.022 34.1222C116.175 31.3695 114.814 28.8284 113.029 26.6202C111.184 24.3514 108.794 22.5062 105.981 21.1751C103.077 19.7836 99.7188 19.1181 96.0283 19.0576C94.2436 19.0274 92.5193 19.1786 90.8858 19.5114C89.2523 19.8441 87.7398 20.3281 86.2878 21.0239C83.535 22.3549 81.2057 24.2002 79.3605 26.5294C77.5757 28.7679 76.2447 31.2787 75.3372 34.0315C74.4599 36.7237 74.0062 39.4765 73.9759 42.2898C73.9457 45.345 74.4297 48.3096 75.4582 51.1228C76.4867 53.9058 77.9992 56.4469 79.9655 58.6551C81.962 60.8936 84.3518 62.6481 87.1045 63.9187C89.8875 65.2194 93.0033 65.8849 96.3006 65.9152C99.3861 65.9454 102.32 65.4312 105.013 64.2817C107.675 63.1624 110.034 61.4986 112 59.3509C113.936 57.2334 115.449 54.6923 116.508 51.8488C117.566 48.9751 118.111 45.8593 118.171 42.5015C118.292 39.6278 117.869 36.8447 117.022 34.1222ZM90.2203 49.6103C89.3733 48.7028 88.7078 47.7046 88.2238 46.5248C87.7398 45.3753 87.528 44.2258 87.5583 42.925C87.5885 41.4428 87.77 40.0513 88.1028 38.69C88.4355 37.4195 88.9498 36.3305 89.6455 35.3322C89.9783 34.8785 90.3413 34.4852 90.7648 34.1222C91.1883 33.7592 91.6723 33.4567 92.2168 33.1542C92.7008 32.9122 93.2756 32.7005 93.9713 32.5795C94.6671 32.4585 95.4536 32.3677 96.3308 32.398C97.7828 32.4282 99.1138 32.761 100.475 33.4567C101.08 33.7895 101.625 34.1525 102.139 34.6365C102.623 35.1205 103.107 35.6952 103.5 36.391C103.863 37.0262 104.166 37.7522 104.347 38.6597C104.559 39.537 104.65 40.5958 104.65 41.8058C104.619 43.2578 104.498 44.5585 104.287 45.6475C104.075 46.7365 103.742 47.6441 103.379 48.3701C102.986 49.1566 102.532 49.8221 102.048 50.3363C101.564 50.8506 101.08 51.2438 100.536 51.5766C99.9306 51.9093 99.2954 52.1513 98.6601 52.3328C98.0248 52.4841 97.3291 52.5748 96.6031 52.5748C95.3628 52.5446 94.2436 52.3026 93.1848 51.7883L93.1243 51.7581L93.1848 51.7883C92.0051 51.2136 91.0673 50.5178 90.2203 49.6103Z" fill="#FFF100"/>
<path d="M81.1756 51.5463L81.5992 49.7918C78.7254 49.0961 75.8516 48.1583 72.9778 46.9785C71.7678 46.4945 70.5578 45.9198 69.3176 45.2543L68.4706 46.8575L69.2268 48.5213C69.5293 48.3701 69.8318 48.2491 70.1646 48.0676C72.2821 47.0088 74.1879 45.6475 75.7306 43.9838C77.2734 42.2898 78.4531 40.3235 79.1186 38.1152C79.7841 35.9372 79.9354 33.6382 79.6934 31.2787L78.6346 31.3997L79.6934 31.2787L78.6346 31.3997L79.6934 31.2787L78.1204 31.4299L79.6934 31.2787V31.2484L78.1204 31.3997L79.6934 31.2484V31.2182V31.1879L78.0296 31.3694L79.6934 31.1879V31.1577L78.0296 31.3392L79.6934 31.1577C79.4514 28.7074 78.7859 26.4084 77.6364 24.3514C76.7591 22.8086 75.6096 21.4474 74.2181 20.3584C73.1896 19.5416 72.0401 18.8761 70.7998 18.3316C68.9546 17.5451 66.9581 17.0914 64.8405 16.8796C62.723 16.6679 60.4543 16.7284 58.0645 16.9704C52.4682 17.5754 45.9342 19.2089 38.3111 21.8709L35.5281 22.8389C35.0441 23.0204 34.6509 23.3532 34.4694 23.8372C34.2576 24.2909 34.2576 24.8354 34.4694 25.2892L39.9446 37.7522C40.1261 38.206 40.4891 38.5387 40.9429 38.7202C41.3967 38.9017 41.9109 38.8715 42.3344 38.69L43.6352 38.1152L42.8789 36.4515L41.0639 36.4817C41.0941 37.9942 41.1244 39.5672 41.1849 41.11C41.3059 44.0443 41.4572 46.9483 41.6689 49.8221C41.8807 52.6656 42.0924 55.3881 42.3647 57.9291C42.6369 60.5609 42.9394 62.9809 43.2722 65.1892L45.0569 64.9169L43.2419 65.0682L43.4537 67.6697C43.4839 68.1537 43.7259 68.6074 44.0889 68.9099C44.4519 69.2124 44.9359 69.3637 45.4199 69.3334L59.3048 68.1839C59.819 68.1537 60.2728 67.8814 60.5753 67.4882C60.8778 67.0949 61.029 66.5807 60.9383 66.0664L60.3938 62.8901L58.609 63.1926L60.424 63.0111C60.182 60.6516 59.94 58.3829 59.7283 56.1746C59.698 55.9024 59.6678 55.6604 59.6375 55.3881L57.8225 55.5696L56.8242 57.0821C58.6393 58.2921 60.545 59.4416 62.5415 60.5911C64.5985 61.7709 66.6556 62.8296 68.7126 63.7674C70.8603 64.7354 72.9476 65.4917 75.0046 66.0059L76.9709 66.4899C77.7574 66.6714 78.5439 66.3387 78.9674 65.6429L86.3484 53.2706C86.6509 52.7866 86.6812 52.1816 86.4694 51.6371C86.2577 51.0926 85.7737 50.6993 85.2292 50.5783L81.6596 49.7011L81.1756 51.5463L80.7521 53.3008L81.9319 53.6033L76.4869 62.7086L75.8214 62.5574C74.0366 62.1036 72.1308 61.4381 70.1646 60.5609C68.1983 59.6836 66.2321 58.6551 64.296 57.5359C62.36 56.4469 60.5148 55.2973 58.7603 54.1478C58.1855 53.7546 57.4293 53.7546 56.8242 54.1176C56.2192 54.4806 55.8865 55.1461 55.947 55.8419C55.9772 56.1141 56.0075 56.3561 56.0377 56.6284C56.2495 58.8366 56.4915 61.1356 56.7335 63.4951V63.6161L56.9452 64.8564L46.8417 65.7034L46.7812 64.9169V64.7959C46.4484 62.6481 46.1762 60.2886 45.9039 57.6871C45.6317 55.1763 45.4199 52.5446 45.2082 49.7011C44.9964 46.8878 44.8452 44.014 44.7544 41.11C44.6939 39.5672 44.6637 38.0547 44.6334 36.5725C44.6334 35.9675 44.3007 35.3927 43.7864 35.06C43.2722 34.7272 42.6369 34.697 42.0622 34.939L40.7614 35.5137L41.5177 37.1775L43.1814 36.4515L38.4926 25.7732L39.4304 25.4404C46.9022 22.8389 53.1942 21.2659 58.367 20.7214C60.5753 20.4794 62.602 20.4491 64.417 20.6306C66.2321 20.8121 67.8656 21.2054 69.2873 21.8104C70.2251 22.2036 71.1023 22.7179 71.8586 23.3229C72.8871 24.1397 73.7341 25.1379 74.3694 26.2572C75.2466 27.7999 75.7609 29.5847 75.9726 31.6417V31.672L77.6364 31.4904L75.9726 31.672V31.7022L77.6364 31.5207L75.9726 31.7022L77.7876 31.5207L75.9726 31.672V31.7022L76.6381 31.6417L75.9726 31.7022L76.6381 31.6417L75.9726 31.7022C76.1844 33.6382 76.0331 35.4532 75.5491 37.0867C75.0651 38.7202 74.1879 40.2328 72.9778 41.5335C71.7678 42.8343 70.2553 43.9233 68.4403 44.8308C68.1983 44.9518 67.9261 45.0728 67.6538 45.1938C67.0186 45.466 66.5951 46.1013 66.5951 46.797C66.5648 47.4928 66.9581 48.1281 67.5631 48.4608C68.8941 49.1566 70.2251 49.7918 71.5561 50.3363C74.5811 51.5766 77.6364 52.5748 80.6916 53.3008L81.1756 51.5463ZM63.8725 32.1257L63.1465 33.7895L63.3885 33.2752L63.0558 33.729C63.086 33.7592 63.1465 33.7895 63.1465 33.7895L63.3885 33.2752L63.0558 33.729L64.175 32.3072L63.0255 33.6987L63.4793 33.1542L62.9953 33.6685C63.0255 33.6987 63.0255 33.6987 63.0255 33.6987L63.4793 33.1542L62.9953 33.6685L63.8423 32.7912L62.8743 33.487C62.9045 33.5475 62.965 33.608 63.0255 33.6382L63.8725 32.761L62.9045 33.4567L63.7818 32.8215L62.844 33.3962C62.844 33.4265 62.8743 33.4265 62.9045 33.4567L63.7818 32.8215L62.844 33.3962L63.328 33.0937L62.8138 33.366L62.844 33.3962L63.328 33.0937L62.8138 33.366L64.417 32.519L62.8138 33.3357L63.328 33.0635L62.7533 33.2147C62.7533 33.2147 62.7835 33.2752 62.7835 33.3055L63.2978 33.0332L62.723 33.1845L62.8138 33.1542L62.723 33.1845L62.8138 33.1542L62.723 33.1845V33.2147C62.723 33.2147 62.723 33.245 62.723 33.2752C62.723 33.366 62.723 33.3962 62.723 33.3962L63.0255 33.4265L62.7533 33.3357V33.3962L63.0558 33.4265L62.7835 33.3357L64.5078 33.85L62.7835 33.2752L62.9953 33.3357L62.8138 33.2752L63.0255 33.3357L62.844 33.2752L63.449 33.5172L62.9045 33.1542C62.8743 33.1845 62.844 33.245 62.844 33.2752L63.449 33.5172L62.9045 33.1542L63.2978 33.3962L62.9045 33.0937L62.8743 33.124L63.2675 33.366L62.8743 33.0635L62.9953 33.1542L62.8743 33.0635L62.9953 33.1542L62.8743 33.0635L62.8138 33.124L64.2355 34.2735L62.9045 33.0332C62.7533 33.2147 62.5415 33.3962 62.2693 33.5777C61.997 33.7592 61.634 33.971 61.15 34.1525C60.0308 34.6062 58.8208 34.9692 57.4898 35.2415C57.0057 35.3322 56.552 35.423 56.0982 35.4835L56.4007 37.2682L58.2158 37.1775C58.1855 36.4817 58.125 35.7557 58.0948 35.06C58.0343 34.092 58.004 33.124 57.9738 32.1257L56.1587 32.1862L56.5217 33.971C56.7032 33.9407 56.8847 33.9105 57.0057 33.8802C57.8225 33.729 58.609 33.608 59.3653 33.5172H59.3955L59.3048 32.6702L59.3955 33.5172L59.3048 32.6702L59.3955 33.5172C60.545 33.3962 61.4828 33.3962 62.118 33.4265C62.4508 33.4567 62.6928 33.487 62.8743 33.5172C63.0558 33.5475 63.1768 33.608 63.1768 33.608L63.8725 32.1257L64.5985 30.4619C64.296 30.3409 63.9633 30.2199 63.6003 30.1594C63.2373 30.0687 62.8138 30.0082 62.3298 29.9779C61.392 29.9174 60.2728 29.9477 58.9418 30.0687H58.9115H58.9418C58.0948 30.1594 57.2175 30.2804 56.2797 30.4619C56.068 30.4922 55.9167 30.5527 55.7655 30.5527C54.8882 30.7342 54.2832 31.5207 54.3135 32.398C54.3437 33.3962 54.4042 34.3642 54.4345 35.3625C54.4647 36.0885 54.495 36.8145 54.5555 37.5102C54.5857 38.0245 54.8277 38.5085 55.2512 38.8412C55.6445 39.174 56.189 39.295 56.7032 39.2043C57.1872 39.1135 57.6713 39.0227 58.1553 38.932C59.698 38.6295 61.15 38.206 62.481 37.6615C63.1465 37.3892 63.7213 37.0867 64.2053 36.754C64.7195 36.4212 65.143 36.0582 65.5061 35.665L65.5666 35.5742L64.1448 34.4247L65.5061 35.6347C65.6573 35.4835 65.7783 35.302 65.9296 35.0902C66.0506 34.8785 66.1413 34.6667 66.2018 34.4852V34.455C66.2623 34.2432 66.3228 34.0012 66.3228 33.7592C66.3531 33.5172 66.3531 33.245 66.3228 32.9727C66.2926 32.7307 66.2623 32.4887 66.2018 32.3072C66.1413 32.0955 66.0808 31.914 65.9901 31.7627L65.9598 31.7325C65.9296 31.672 65.8993 31.6115 65.8388 31.551C65.7783 31.43 65.6573 31.3089 65.5666 31.2182C65.4758 31.0972 65.3851 31.0367 65.2943 30.9762L65.264 30.9459C65.0825 30.7947 64.8405 30.6434 64.5683 30.5224L63.8725 32.1257Z" fill="#050505"/>
<path d="M81.1753 51.5463C78.2108 50.8203 75.2463 49.8523 72.312 48.6423C71.0415 48.128 69.771 47.523 68.4702 46.8273C68.7727 46.7063 69.045 46.555 69.3172 46.434C71.2835 45.4358 72.9775 44.2258 74.369 42.7435C75.7605 41.2613 76.7588 39.5067 77.3335 37.601C77.9083 35.6952 78.0595 33.608 77.8478 31.4904C77.6058 29.2519 77.031 27.1647 76.0025 25.3799C75.2463 24.0489 74.248 22.8691 73.038 21.9011C72.1305 21.1751 71.1322 20.6004 70.0432 20.1466C68.4097 19.4509 66.5947 19.0274 64.6284 18.8459C62.6622 18.6644 60.5144 18.6946 58.2154 18.9366C52.8309 19.5114 46.4178 21.1146 38.8553 23.7464L36.0723 24.7144L41.5476 37.1775L42.8483 36.6027C42.8786 38.1152 42.9088 39.658 42.9693 41.2008C43.0903 44.135 43.2416 47.0088 43.4533 49.8523C43.6651 52.6958 43.8768 55.3578 44.1491 57.8989C44.4213 60.5004 44.7238 62.8901 45.0566 65.0681L45.2683 67.6697L59.1532 66.5202L58.6087 63.3439C58.3666 60.9844 58.1246 58.7156 57.9129 56.5074C57.8826 56.2351 57.8524 55.9931 57.8221 55.7208C59.6069 56.9006 61.4824 58.0501 63.4487 59.1694C65.4452 60.3189 67.4417 61.3474 69.4685 62.2549C71.5255 63.1926 73.522 63.8884 75.458 64.3724L77.4243 64.8564L84.8053 52.4841L81.1753 51.5463ZM63.8722 32.1257C64.0234 32.1862 64.1142 32.2467 64.1747 32.3072C64.2654 32.398 64.3259 32.4282 64.3864 32.5492C64.4469 32.6702 64.5074 32.8517 64.5377 33.1542C64.5679 33.5172 64.5377 33.7592 64.4772 33.9407C64.4167 34.1222 64.3562 34.2432 64.1747 34.4247C63.9024 34.697 63.5999 34.9692 63.2067 35.2415C62.8134 35.5137 62.3294 35.7557 61.7849 35.9675C60.5447 36.4817 59.2439 36.875 57.7919 37.1472C57.3079 37.238 56.8239 37.3287 56.3701 37.4195C56.3399 36.7237 56.2794 35.9977 56.2491 35.2717C56.1886 34.3037 56.1584 33.3055 56.1281 32.3375C56.3096 32.3072 56.4609 32.2769 56.6424 32.2467C57.5196 32.0954 58.3364 31.9442 59.1532 31.8837C60.3934 31.7627 61.4219 31.7324 62.2084 31.7929C62.9949 31.8534 63.5697 31.9744 63.8722 32.1257Z" fill="#FFF100"/>
<path d="M71.9189 98.4946L72.7054 96.8611C69.8619 95.4999 67.1091 94.1083 64.4773 92.6866C64.3866 92.6261 64.2958 92.5958 64.2051 92.5656L63.6303 94.2898L64.4773 92.6866C61.8456 91.2648 59.5163 89.9338 57.4895 88.6633L57.3988 88.6028L56.5215 90.1758L57.4895 88.6331C55.5838 87.4533 54.1015 86.4248 53.073 85.6383L51.9537 87.06L52.9823 88.5423C53.5268 88.1793 54.1923 87.7255 54.9788 87.2415C56.2493 86.455 57.7013 85.6383 59.3953 84.7308C61.0893 83.8233 62.9043 82.9158 64.8101 81.978C66.6553 81.0705 68.5308 80.2537 70.3459 79.4975L72.6146 78.5597C73.4616 78.1967 73.9154 77.259 73.6734 76.3817L69.8316 63.0414C69.6804 62.5574 69.3476 62.1339 68.8636 61.9221C68.4099 61.7104 67.8653 61.6801 67.3813 61.8919L64.5681 63.0717C62.5111 63.9187 60.3633 64.9472 58.0945 66.1269C55.856 67.3067 53.6478 68.5167 51.4395 69.8174C49.2312 71.088 47.144 72.3585 45.208 73.629H45.1777L46.176 75.1415L45.1777 73.629C45.087 73.6895 45.0265 73.7197 44.9357 73.7802L45.934 75.2927L47.749 75.444C47.7792 74.9902 47.8095 74.5365 47.87 74.1432C48.0817 71.9047 48.3237 69.6964 48.596 67.5487L48.9892 64.5237C49.0497 64.0094 48.8985 63.4952 48.5657 63.1019C48.233 62.7087 47.749 62.4969 47.2347 62.4666L33.4104 62.2246C32.4726 62.1944 31.6559 62.9204 31.5651 63.8884L31.3534 66.3992C31.0206 69.9989 30.7484 73.6592 30.5366 77.4405C30.3249 81.2218 30.1434 84.9425 30.0526 88.6028C29.9619 92.2328 29.9014 95.7116 29.9014 98.9786C29.9014 102.457 29.9619 105.603 30.0526 108.447L30.1434 111.109C30.1736 112.107 30.9904 112.863 31.9886 112.863L34.6506 112.803L45.5407 112.621C46.0247 112.621 46.5087 112.41 46.8415 112.047C47.1742 111.684 47.3557 111.23 47.3255 110.746L47.2347 107.963C47.1742 106.269 47.1137 104.454 47.0835 102.488C47.0532 101.157 47.023 99.7651 47.023 98.3434H45.208L44.1492 99.8256C44.6635 100.189 45.1777 100.552 45.7222 100.945C48.1725 102.699 50.9252 104.514 54.0108 106.45L54.9788 104.908L55.7955 103.274C54.9183 102.851 53.8595 103.153 53.4058 104C52.9218 104.847 53.194 105.906 54.041 106.42C57.187 108.386 60.6053 110.292 64.2958 112.228L66.5646 113.408C67.4116 113.862 68.4703 113.559 68.9543 112.742L76.2446 100.673C76.5169 100.249 76.5774 99.7046 76.4261 99.2206C76.2749 98.7366 75.9421 98.3131 75.4581 98.1014L72.7356 96.8006L71.9189 98.4946L71.1324 100.128L72.0399 100.552L66.6856 109.445L65.9293 109.052C62.2993 107.176 58.9718 105.301 55.9165 103.395L54.9485 104.938L54.1318 106.571C55.009 106.995 56.0678 106.692 56.5215 105.845C56.9753 104.998 56.7333 103.94 55.8863 103.425C52.8613 101.55 50.1387 99.7349 47.7792 98.0711C47.2347 97.6779 46.7205 97.3149 46.2365 96.9519C45.692 96.5586 44.9357 96.4981 44.3307 96.8006C43.7257 97.1031 43.3324 97.7384 43.3627 98.4341C43.3627 99.8559 43.3929 101.278 43.4232 102.639C43.4837 104.605 43.5139 106.45 43.5744 108.144L43.6047 109.082L34.5599 109.233L33.6826 109.264L33.6524 108.386C33.5616 105.634 33.5011 102.518 33.5011 99.0694C33.5011 95.8326 33.5616 92.4143 33.6524 88.7843C33.7431 85.1543 33.8944 81.494 34.1364 77.743C34.3481 73.992 34.6204 70.3619 34.9531 66.7924L35.0136 65.9454L45.1172 66.1269L44.9962 67.1252C44.724 69.3334 44.482 71.572 44.2702 73.8407C44.24 74.2945 44.2097 74.7482 44.1492 75.1717C44.0887 75.8675 44.4215 76.533 45.0265 76.8657C45.6315 77.2287 46.3575 77.1985 46.9322 76.8355C47.023 76.775 47.0835 76.7447 47.1742 76.6842H47.2045L46.2062 75.1717L47.2045 76.6842C49.1102 75.444 51.137 74.2037 53.2848 72.9635C55.4325 71.693 57.6105 70.5132 59.7885 69.3637C61.9666 68.2142 64.0236 67.2462 65.9596 66.4294L66.8973 66.0362L69.7409 75.8675L68.9846 76.17C67.0788 76.9565 65.1428 77.8035 63.2371 78.7412C61.3011 79.679 59.4558 80.6168 57.7013 81.5545C55.9468 82.4923 54.404 83.3695 53.073 84.1863C52.226 84.7005 51.5302 85.1543 50.9252 85.5778C50.4412 85.9105 50.169 86.455 50.1387 87.0298C50.1085 87.6046 50.3807 88.1491 50.8345 88.5121C52.0142 89.4196 53.5873 90.5086 55.5535 91.7186L55.6443 91.7791L56.5215 90.2061L55.5535 91.7488C57.6408 93.0496 60.0608 94.4411 62.7228 95.8931C62.8136 95.9536 62.9043 95.9838 62.9951 96.0141L63.5698 94.2898L62.7228 95.8931C65.4151 97.3451 68.1981 98.7669 71.1021 100.158L71.9189 98.4946Z" fill="#050505"/>
<path d="M71.9193 98.4946C69.0456 97.1334 66.2626 95.7116 63.6005 94.2898C60.9385 92.8681 58.579 91.5068 56.522 90.2061C54.586 88.9961 53.0735 87.9373 51.9542 87.0903C52.529 86.697 53.2247 86.2433 54.0415 85.729C55.3422 84.9425 56.8547 84.0653 58.579 83.1578C60.3033 82.2503 62.1183 81.3125 64.0543 80.3748C65.9601 79.437 67.8356 78.6202 69.7111 77.8337L71.9798 76.896L68.1381 63.5556L65.3248 64.7354C63.3283 65.5522 61.241 66.5504 59.0025 67.7302C56.7942 68.8797 54.6162 70.0897 52.4382 71.3602C50.2602 72.6307 48.2032 73.871 46.2672 75.1415C46.1764 75.202 46.1159 75.2322 46.0252 75.2927C46.0554 74.839 46.0857 74.4155 46.1462 73.9617C46.3579 71.6929 46.5999 69.4847 46.8722 67.3067L47.2654 64.2817L33.4411 64.0396L33.2294 66.5504C32.8966 70.1199 32.6243 73.7802 32.4126 77.5312C32.2008 81.2823 32.0193 85.003 31.9286 88.6331C31.8378 92.2631 31.7773 95.7116 31.7773 98.9484C31.7773 102.427 31.8378 105.543 31.9286 108.356L32.0193 111.018L34.6814 110.958L45.5714 110.776L45.4807 107.993C45.4202 106.299 45.3597 104.484 45.3294 102.488C45.2992 101.126 45.2689 99.7349 45.2689 98.3131C45.7529 98.6761 46.2672 99.0391 46.8117 99.4324C49.2317 101.157 51.9542 102.972 55.0095 104.877C58.095 106.813 61.483 108.719 65.1433 110.595L67.4121 111.774L74.7024 99.7046L71.9193 98.4946Z" fill="#FF000A"/>
<path d="M45.9945 25.5312L47.8398 24.9564C47.386 23.5044 46.781 22.1431 45.9945 20.9029C45.934 20.8121 45.8735 20.7214 45.7828 20.6306L44.361 21.9314L45.9945 20.9029C44.5727 18.6644 42.7275 16.7889 40.5192 15.4881C40.4587 15.4579 40.4285 15.4276 40.368 15.3974L39.5512 17.1519L40.5495 15.4881C38.5832 14.3386 36.4959 13.4916 34.2877 13.0378L34.1667 13.0076L33.8944 14.9134L34.2877 13.0076C32.3214 12.5841 30.3854 12.3723 28.4796 12.3421C28.3889 12.3421 28.3586 12.3421 28.2679 12.3421L28.4494 14.2781L28.4796 12.3421C26.8159 12.3421 25.3639 12.3723 24.0631 12.4933C22.8834 12.6143 21.5524 12.8261 20.0096 13.0983C19.8583 13.1286 19.7676 13.1588 19.6466 13.2193L20.3726 15.0344L19.9793 13.0983C18.3761 13.4008 16.6821 13.7638 14.8368 14.2176C12.9916 14.6714 11.116 15.2159 9.24053 15.7906L9.81528 17.6359L9.24053 15.7906H9.21028C7.30452 16.3956 5.45926 17.0611 3.73499 17.7871L1.19398 18.8459C0.256223 19.2391 -0.22778 20.2979 0.104972 21.2659L4.85425 34.7272C5.03575 35.2415 5.429 35.665 5.91301 35.8767C6.39701 36.0885 6.97176 36.0885 7.45577 35.8767L9.69428 34.8785L8.90778 33.124L6.97176 33.2147C7.09276 36.2397 7.24402 39.3555 7.42552 42.562C7.69777 47.3113 8.09102 52.1816 8.57502 57.2031C8.69602 58.2921 8.78677 59.3509 8.90778 60.4701C9.02878 61.6196 9.14978 62.7389 9.30103 63.8582L9.66403 66.7319C9.81528 67.7907 10.753 68.5469 11.8118 68.3957L14.6856 68.0327L26.2109 66.6109C26.7251 66.5504 27.2091 66.2782 27.5419 65.8547C27.8444 65.4312 27.9956 64.8867 27.9049 64.3724L27.3906 61.3776C27.1789 60.1374 26.9671 58.5946 26.7554 56.8401L24.8194 57.0821L26.7554 56.9006V56.8704C26.5436 55.0856 26.3319 53.1193 26.1201 51.0018C26.0596 50.4573 25.9991 49.8826 25.9689 49.3078L24.0329 49.4893L24.1841 51.4253C24.6681 51.3951 25.1219 51.3648 25.6361 51.3043C28.2679 51.0321 30.9299 50.5178 33.5617 49.7011C36.3447 48.8541 38.916 47.6441 41.215 46.0408C42.4552 45.1938 43.5745 44.1955 44.5727 43.1065C45.571 41.9873 46.418 40.7773 47.1138 39.4463C47.9003 37.964 48.3843 36.3607 48.6565 34.7272C48.9288 33.0635 48.9288 31.3695 48.7775 29.6452C48.6263 28.0419 48.3238 26.5294 47.9003 25.0774L45.9945 25.5312L44.1492 26.1059C44.5122 27.2554 44.7542 28.5259 44.8752 29.9174C45.0265 31.3695 44.9962 32.7307 44.7845 34.0012C44.5727 35.2717 44.2097 36.4515 43.635 37.5405C43.0905 38.5992 42.425 39.537 41.6385 40.4143C40.852 41.2915 39.9747 42.078 38.9765 42.7435C37.0102 44.1048 34.8019 45.1333 32.3819 45.8593C29.9922 46.5853 27.6024 47.0693 25.2126 47.3113C24.7589 47.3415 24.3354 47.4021 23.8816 47.4323C23.3674 47.4626 22.8834 47.7046 22.5506 48.0978C22.2179 48.4911 22.0364 49.0053 22.0969 49.5196C22.1574 50.0943 22.2179 50.6691 22.2481 51.2438C22.4599 53.3916 22.6716 55.3881 22.8834 57.2031L24.8194 56.9611L22.8834 57.1426V57.1729C23.0951 58.9879 23.3371 60.5609 23.5489 61.9221L23.7304 62.9204L14.2621 64.1304L13.2941 64.2514L13.1731 63.2834C13.0218 62.1944 12.9008 61.1054 12.7798 60.0164C12.6588 58.9274 12.568 57.8384 12.447 56.7494C11.963 51.7883 11.5698 46.9785 11.2975 42.2898C11.116 39.0833 10.9648 35.9977 10.8438 32.9727C10.8135 32.3375 10.4808 31.7325 9.93628 31.3997C9.39178 31.067 8.69602 31.0065 8.12127 31.2787L7.81877 31.43L4.4005 21.7499L5.2475 21.3869C6.88101 20.6911 8.60527 20.0861 10.4203 19.5114L9.84553 17.6661L10.4203 19.5114H10.4505C12.2655 18.9366 14.0503 18.4224 15.8048 17.9989C17.5593 17.5754 19.1928 17.2124 20.7053 16.9401C20.8566 16.9099 20.9473 16.8796 21.0683 16.8191L20.3423 15.0041L20.6751 16.9099C22.1876 16.6376 23.4279 16.4561 24.4261 16.3654C25.5151 16.2444 26.8461 16.2141 28.4191 16.2141C28.5099 16.2141 28.5401 16.2141 28.6309 16.2141L28.4494 14.2781L28.4191 16.2141C30.0224 16.2444 31.7164 16.4259 33.4407 16.7889L33.5617 16.8191L33.8339 14.9134L33.4407 16.8191C35.2254 17.2124 36.9194 17.8779 38.5227 18.8156C38.5832 18.8459 38.6135 18.8761 38.674 18.9064L39.4907 17.1519L38.4925 18.8156C40.1562 19.7836 41.5477 21.2054 42.6972 22.9902C42.7577 23.0809 42.8182 23.1717 42.909 23.2624L44.3307 21.9616L42.6972 22.9902C43.272 23.8977 43.756 24.9564 44.119 26.1059L45.9945 25.5312ZM22.7624 32.2165L24.6984 32.1257C24.6379 30.9762 24.6076 29.9174 24.5774 28.8587L22.6414 28.9192L22.9741 30.825C23.0951 30.7947 23.1859 30.7947 23.2464 30.7645C24.2749 30.5829 24.9706 29.6149 24.8496 28.5864C24.6984 27.5579 23.7606 26.8017 22.7321 26.9227L22.9136 28.8587L23.2464 30.7645C24.0631 30.6132 24.8496 30.5224 25.5756 30.4317H25.6059L25.5151 29.5242L25.6059 30.4317L25.5151 29.5242L25.6059 30.4317C27.0579 30.2804 28.2679 30.2804 29.1452 30.3409C29.5687 30.3712 29.9317 30.4317 30.2039 30.4922C30.4762 30.5527 30.6577 30.6132 30.7484 30.6434C30.8089 30.6737 30.8392 30.6737 30.8392 30.7039L30.8997 30.6434L30.8392 30.7039L30.8997 30.6434L30.8392 30.7039L32.0189 29.1612L30.8089 30.6737L31.2022 30.2199L30.7484 30.5829C30.7787 30.6132 30.8089 30.6737 30.8392 30.6737L31.2324 30.2199L30.7787 30.5829L31.3534 30.1292L30.7484 30.5224L30.7787 30.5829L31.3534 30.1292L30.7484 30.5224L31.1417 30.2804L30.7484 30.5224V30.5527L31.1417 30.3107L30.7484 30.5527L30.9299 30.4619L30.7484 30.5527L30.9299 30.4619L30.7484 30.5527L32.4424 29.6452L30.7182 30.5224L30.9904 30.3712L30.6879 30.4922V30.5224L30.9602 30.3712L30.6577 30.4922L30.7787 30.4317L30.6274 30.4922L30.7484 30.4317L30.5972 30.4922C30.5972 30.4922 30.6274 30.5527 30.6274 30.6737C30.6577 30.946 30.6577 31.0972 30.6274 31.2182V31.188C30.5972 31.309 30.5972 31.3695 30.5669 31.3997C30.5367 31.43 30.5367 31.4602 30.4762 31.551L32.0492 32.6702L30.4762 31.5207C30.4157 31.6115 30.2947 31.7325 30.0224 31.9442C29.6594 32.2165 28.9031 32.6097 27.8444 32.9122C26.7554 33.245 25.3336 33.5172 23.5791 33.6987L23.6396 34.2735L23.5791 33.6987L23.6396 34.2735L23.5791 33.6987C23.5791 33.6987 23.5489 33.6987 23.5186 33.6987L23.7606 35.6347L23.5791 33.6987C23.3069 33.729 23.0044 33.7592 22.7321 33.7895L22.8834 35.7255L24.8194 35.6045C24.7589 34.4247 24.6681 33.245 24.6076 32.0955L22.7624 32.2165L20.8263 32.3072C20.8869 33.487 20.9473 34.6667 21.0381 35.8465C21.0683 36.3607 21.3104 36.8447 21.7036 37.1775C22.0969 37.5102 22.6111 37.6917 23.1254 37.6312C23.4279 37.601 23.7304 37.5707 24.0631 37.5405H24.0934L23.9119 35.9372L24.0631 37.5405H24.0934L23.9119 35.9372L24.0631 37.5405L24.0026 36.9657L24.0631 37.5405L24.0026 36.9657L24.0631 37.5405C25.9991 37.359 27.6629 37.0262 29.0544 36.633C30.4459 36.2095 31.5652 35.6952 32.4122 35.0902C32.9567 34.697 33.4104 34.2432 33.7432 33.7895V33.7592C33.9549 33.487 34.1364 33.1542 34.2574 32.7912C34.4087 32.4282 34.4994 32.0652 34.5297 31.7022V31.672C34.5902 31.2182 34.5902 30.7342 34.5599 30.1897C34.5297 29.8872 34.4692 29.6149 34.4087 29.3729C34.3482 29.1309 34.2272 28.8889 34.1364 28.6772V28.6469C34.0457 28.4654 33.9247 28.2839 33.7734 28.0722C33.6222 27.8907 33.4407 27.7092 33.2592 27.5882H33.2289C32.9567 27.3764 32.6542 27.1949 32.2912 27.0437C31.8979 26.8622 31.5047 26.7412 31.0207 26.6504C30.5367 26.5294 30.0224 26.4689 29.4174 26.4084C28.2376 26.3177 26.8159 26.3479 25.1824 26.4992H25.1521H25.1824C24.3354 26.5899 23.4581 26.7109 22.5506 26.8622C21.5221 27.0437 20.8263 28.0117 20.9776 29.0402C21.1289 30.0687 22.0666 30.7947 23.0951 30.7039L22.9136 28.7679L22.5809 26.8622C22.4599 26.8924 22.3691 26.8924 22.3086 26.9227C21.3709 27.1042 20.6751 27.9209 20.7053 28.8889C20.7356 29.9477 20.7659 31.067 20.8263 32.2467L22.7624 32.2165Z" fill="#050505"/>
<path d="M45.9945 25.5312C45.6012 24.2304 45.0567 23.0204 44.361 21.9314C43.0904 19.9349 41.4569 18.2711 39.5209 17.1216C37.7362 16.0628 35.8304 15.3066 33.8339 14.8831C31.9886 14.4898 30.1736 14.2781 28.4191 14.2478C26.7856 14.2478 25.4243 14.2781 24.2143 14.3991C23.1253 14.5201 21.8246 14.7016 20.3121 14.9738C18.7693 15.2461 17.0753 15.6091 15.2905 16.0628C13.4755 16.5166 11.6605 17.0309 9.81524 17.6056C7.93973 18.2106 6.18522 18.8459 4.49121 19.5416L1.9502 20.6004L6.69947 34.0315L8.93799 33.0332C9.05899 36.0582 9.21024 39.1437 9.39174 42.3503C9.66399 47.0693 10.027 51.9093 10.5412 56.9006C10.6622 57.9896 10.753 59.0484 10.874 60.1676C10.995 61.2869 11.116 62.4061 11.2673 63.4951L11.6303 66.3689L14.504 66.0059L26.0293 64.5841L25.5151 61.5894C25.2731 60.2886 25.0613 58.7459 24.8496 56.9611C24.6378 55.1461 24.4261 53.1798 24.2143 51.0321C24.1538 50.4573 24.0933 49.8826 24.0631 49.3078C24.5168 49.2775 24.9706 49.2473 25.4546 49.1868C27.9654 48.9448 30.4761 48.4305 32.9869 47.6743C35.5884 46.8878 37.9782 45.7685 40.1259 44.2863C41.2452 43.53 42.2434 42.6225 43.1509 41.6545C44.0282 40.6562 44.7845 39.5672 45.4197 38.3875C46.0852 37.117 46.539 35.7255 46.781 34.2735C47.023 32.8214 47.023 31.2787 46.8717 29.7057C46.66 28.2234 46.3877 26.8319 45.9945 25.5312ZM22.7623 32.2164C22.7018 31.0669 22.6716 29.9779 22.6413 28.9192C22.7321 28.8889 22.8228 28.8889 22.9136 28.8587C23.7606 28.7074 24.5773 28.5864 25.3941 28.5259C26.9368 28.3747 28.2679 28.3444 29.2964 28.4352C30.3249 28.5259 31.0811 28.7074 31.5349 28.9192C31.7769 29.0099 31.9281 29.1309 32.0491 29.2217C32.2306 29.3729 32.3214 29.4939 32.4121 29.6754C32.5029 29.8569 32.5936 30.0989 32.6239 30.4922C32.6541 30.8854 32.6541 31.2182 32.6239 31.4904C32.5634 31.9744 32.4121 32.3374 32.1399 32.7004C31.9281 32.9727 31.6559 33.245 31.2626 33.5475C30.6576 34.0012 29.7199 34.4247 28.4796 34.818C27.2393 35.181 25.6966 35.4835 23.8513 35.665C23.5488 35.6952 23.2463 35.7255 22.9438 35.7557C22.8833 34.5457 22.8228 33.366 22.7623 32.2164Z" fill="#FFF100"/>
<path d="M220.568 24.3514L222.867 30.5829L229.341 32.2165L224.108 36.3607L224.531 42.9855L218.995 39.295L212.824 41.7453L214.639 35.3625L210.374 30.2199L217.029 29.9779L220.568 24.3514Z" fill="#FF000A"/>
</svg>
