<svg width="97" height="76" viewBox="0 0 97 76" fill="none" xmlns="http://www.w3.org/2000/svg">
<path d="M0 48.1786C0 21.5703 21.5703 0 48.1786 0C74.7869 0 96.3572 21.5703 96.3572 48.1786V76H0V48.1786Z" fill="#FED5BF"/>
<path fill-rule="evenodd" clip-rule="evenodd" d="M39.4452 67.3718H43.0466V66.7085H22.6494V67.3718H33.7048C35.2388 69.0249 37.8887 69.046 39.4452 67.3718Z" fill="black"/>
<path fill-rule="evenodd" clip-rule="evenodd" d="M61.2411 67.3718H57.6387V66.7085H78.0359V67.3718H66.9816C65.4475 69.0249 62.7976 69.046 61.2411 67.3718Z" fill="black"/>
<path fill-rule="evenodd" clip-rule="evenodd" d="M44.7044 15.3014C45.5287 15.3014 46.1969 14.6332 46.1969 13.8089C46.1969 12.9846 45.5287 12.3164 44.7044 12.3164C43.8801 12.3164 43.2119 12.9846 43.2119 13.8089C43.2119 14.6332 43.8801 15.3014 44.7044 15.3014ZM52.9959 15.3014C53.8201 15.3014 54.4883 14.6332 54.4883 13.8089C54.4883 12.9846 53.8201 12.3164 52.9959 12.3164C52.1716 12.3164 51.5034 12.9846 51.5034 13.8089C51.5034 14.6332 52.1716 15.3014 52.9959 15.3014ZM46.1969 24.422C46.1969 25.2462 45.5287 25.9144 44.7044 25.9144C43.8801 25.9144 43.2119 25.2462 43.2119 24.422C43.2119 23.5977 43.8801 22.9295 44.7044 22.9295C45.5287 22.9295 46.1969 23.5977 46.1969 24.422ZM44.7044 36.5278C45.5287 36.5278 46.1969 35.8596 46.1969 35.0353C46.1969 34.211 45.5287 33.5428 44.7044 33.5428C43.8801 33.5428 43.2119 34.211 43.2119 35.0353C43.2119 35.8596 43.8801 36.5278 44.7044 36.5278ZM54.4883 24.422C54.4883 25.2462 53.8201 25.9144 52.9959 25.9144C52.1716 25.9144 51.5034 25.2462 51.5034 24.422C51.5034 23.5977 52.1716 22.9295 52.9959 22.9295C53.8201 22.9295 54.4883 23.5977 54.4883 24.422ZM52.9959 36.5278C53.8201 36.5278 54.4883 35.8596 54.4883 35.0353C54.4883 34.211 53.8201 33.5428 52.9959 33.5428C52.1716 33.5428 51.5034 34.211 51.5034 35.0353C51.5034 35.8596 52.1716 36.5278 52.9959 36.5278Z" fill="#9F836B"/>
<path fill-rule="evenodd" clip-rule="evenodd" d="M19.001 34.8695V44.8193L19.3443 44.715C32.3332 40.769 38.4697 51.9462 43.708 61.4875C44.1561 62.3038 44.5977 63.1081 45.0364 63.8899C45.0364 57.0908 42.7004 47.1784 38.2373 40.8394C33.4974 34.107 25.3025 32.2162 19.001 34.8695ZM77.8706 34.8695V44.8193L77.5273 44.715C64.5383 40.769 58.4019 51.9462 53.1636 61.4875C52.7154 62.3038 52.2739 63.1081 51.8351 63.8899C51.8351 57.0908 54.1712 47.1784 58.6342 40.8394C63.3742 34.107 71.569 32.2162 77.8706 34.8695Z" fill="black"/>
</svg>
