<svg width="23" height="29" viewBox="0 0 23 29" fill="none" xmlns="http://www.w3.org/2000/svg">
<path d="M18.2423 1.65337C16.4657 0.539788 14.1833 0 11.4121 0C9.53768 0 7.88431 0.238017 6.45621 0.731052C4.31406 1.4621 2.68194 2.76695 1.60236 4.62008C0.527037 6.47321 0 8.85338 0 11.7478V11.7606C0.148761 15.1141 1.13058 17.898 2.69894 19.8489C4.26305 21.8041 6.42646 22.9219 8.85338 22.9176C9.86495 22.9176 10.6725 22.8029 11.3271 22.5946C12.3089 22.2886 12.9464 21.7615 13.3332 21.1538C13.7157 20.546 13.8517 19.8744 13.9155 19.2751C13.9282 19.1604 13.8772 19.0456 13.788 18.9776C13.6945 18.9096 13.5755 18.8926 13.4692 18.9393C13.4055 18.9648 13.2864 19.0031 13.1377 19.0329C12.6914 19.1221 11.9901 19.1689 11.4078 19.1689C10.2985 19.1689 9.33791 19.0116 8.53036 18.6971C7.31477 18.2295 6.42221 17.4347 5.81441 16.2744C5.20662 15.1141 4.88785 13.5755 4.88785 11.6501C4.88785 10.3877 5.02811 9.29541 5.30013 8.36884C5.71241 6.979 6.41371 5.96742 7.41678 5.29163C8.41985 4.61158 9.74169 4.26305 11.4078 4.26305C12.4916 4.26305 13.4267 4.42031 14.213 4.72209C15.3988 5.18112 16.2659 5.95892 16.8609 7.098C17.456 8.23709 17.7663 9.75444 17.7663 11.6458C17.7663 13.8517 17.3582 15.5434 16.5847 16.7504C16.5209 16.8524 16.5167 16.98 16.5719 17.0862C16.6272 17.1925 16.7377 17.2562 16.8567 17.2562C16.8567 17.2562 17.15 17.2562 17.5452 17.2562C18.8883 17.2562 19.9169 16.8482 20.665 16.2447C21.532 15.5391 22.0293 14.5913 22.3098 13.7412C22.5904 12.8869 22.6584 12.1261 22.6584 11.7393C22.6584 9.8097 22.4288 8.10533 21.9613 6.63897C21.26 4.44582 20.0147 2.76695 18.2423 1.65337Z" fill="white"/>
<path fill-rule="evenodd" clip-rule="evenodd" d="M20.6059 26.4497H17.6009C17.6009 26.4114 17.6009 26.3774 17.6009 26.3434C17.6009 26.2244 17.6094 26.1181 17.6264 26.0331C17.6434 25.9566 17.6647 25.9099 17.6859 25.8844C17.7284 25.8419 17.7667 25.8206 17.8347 25.7909C17.8942 25.7654 17.9792 25.7399 18.077 25.7016L20.8014 24.9706C21.2307 24.8558 21.5707 24.6815 21.8385 24.452C22.238 24.1077 22.4463 23.6615 22.5525 23.1982C22.6545 22.7349 22.663 22.2546 22.663 21.7828C22.663 21.6681 22.663 21.5576 22.663 21.4471C22.663 21.0688 22.5993 20.7075 22.459 20.3802C22.3188 20.053 22.0978 19.7554 21.8002 19.5132L21.7577 19.4877C21.3752 19.1859 20.9374 19.0159 20.4911 18.9224C20.0279 18.8246 19.5476 18.8076 19.0758 18.8076C18.7315 18.8076 18.3872 18.8204 18.0642 18.8204C17.2142 18.8204 16.4406 18.9904 15.8583 19.4282C15.5693 19.6492 15.3313 19.9339 15.1698 20.2867C15.0125 20.6395 14.9275 21.0518 14.9275 21.5236C14.9275 21.7318 14.9657 21.9273 15.0507 22.1101C15.174 22.3821 15.3993 22.5989 15.6798 22.7306C15.8711 22.8242 16.0921 22.8837 16.3386 22.9134C16.4533 22.9262 16.6956 22.9347 16.6956 22.9347H17.5669V22.6116C17.5669 22.5521 17.5669 22.4841 17.5669 22.4161C17.5712 22.1696 17.5754 21.9103 17.5882 21.8041C17.6052 21.6383 17.6307 21.5066 17.6689 21.4088C17.6944 21.3365 17.7284 21.2855 17.7624 21.2388C17.8177 21.1793 17.8815 21.1325 18.0047 21.0943C18.1237 21.056 18.3022 21.0305 18.5402 21.0305C18.621 21.0305 18.7018 21.0305 18.7783 21.0305C18.9738 21.0305 19.1523 21.0348 19.3053 21.0518C19.4201 21.0645 19.5178 21.09 19.5986 21.1198C19.7176 21.1665 19.7856 21.2218 19.8493 21.3195C19.9088 21.4173 19.9556 21.5831 19.9556 21.8466C19.9556 21.8891 19.9556 21.9316 19.9556 21.9698C19.9556 22.1441 19.9513 22.2844 19.9428 22.3864C19.9343 22.4671 19.9173 22.5266 19.9003 22.5691C19.8706 22.6371 19.8408 22.6796 19.7516 22.7434C19.6666 22.8029 19.5221 22.8709 19.3011 22.9389L16.4874 23.789C16.1771 23.8697 15.9093 24.0057 15.6925 24.1842C15.361 24.4563 15.1443 24.8133 15.0125 25.2043C14.8807 25.5953 14.834 26.0161 14.834 26.4327V28.5281C14.834 28.7108 14.9827 28.8553 15.1613 28.8553H22.3315C22.5143 28.8553 22.6588 28.7066 22.6588 28.5281V28.5153C22.6588 27.3677 21.7407 26.4497 20.6059 26.4497Z" fill="white"/>
</svg>
