<svg width="545" height="545" viewBox="0 0 545 545" fill="none" xmlns="http://www.w3.org/2000/svg">
<circle cx="272.5" cy="272.5" r="272.5" fill="url(#paint0_linear_26_256)"/>
<circle cx="272.499" cy="272.5" r="232.426" transform="rotate(-180 272.499 272.5)" fill="url(#paint1_linear_26_256)"/>
<circle cx="272.499" cy="272.5" r="222.809" fill="#02AE5A"/>
<mask id="mask0_26_256" style="mask-type:alpha" maskUnits="userSpaceOnUse" x="49" y="49" width="447" height="447">
<circle cx="272.499" cy="272.5" r="222.809" fill="#C4C4C4"/>
</mask>
<g mask="url(#mask0_26_256)">
<path d="M78.2021 32.0586V512.941" stroke="black" stroke-opacity="0.3" stroke-width="1.3"/>
<path d="M117.063 32.0586V512.941" stroke="black" stroke-opacity="0.3" stroke-width="1.3"/>
<path d="M155.922 32.0586V512.941" stroke="black" stroke-opacity="0.3" stroke-width="1.3"/>
<path d="M194.78 32.0586V512.941" stroke="black" stroke-opacity="0.3" stroke-width="1.3"/>
<path d="M233.641 32.0586V512.941" stroke="black" stroke-opacity="0.3" stroke-width="1.3"/>
<path d="M272.499 32.0586V512.941" stroke="black" stroke-opacity="0.3" stroke-width="1.3"/>
<path d="M311.357 32.0586V512.941" stroke="black" stroke-opacity="0.3" stroke-width="1.3"/>
<path d="M350.217 32.0586V512.941" stroke="black" stroke-opacity="0.3" stroke-width="1.3"/>
<path d="M389.077 32.0586V512.941" stroke="black" stroke-opacity="0.3" stroke-width="1.3"/>
<path d="M427.936 32.0586V512.941" stroke="black" stroke-opacity="0.3" stroke-width="1.3"/>
<path d="M466.795 32.0586V512.941" stroke="black" stroke-opacity="0.3" stroke-width="1.3"/>
<path d="M512.94 78.2039L32.0581 78.2038" stroke="black" stroke-opacity="0.3" stroke-width="1.3"/>
<path d="M512.94 117.063L32.0581 117.063" stroke="black" stroke-opacity="0.3" stroke-width="1.3"/>
<path d="M512.94 155.922L32.0581 155.922" stroke="black" stroke-opacity="0.3" stroke-width="1.3"/>
<path d="M512.94 194.781L32.0581 194.781" stroke="black" stroke-opacity="0.3" stroke-width="1.3"/>
<path d="M512.94 233.641L32.0581 233.641" stroke="black" stroke-opacity="0.3" stroke-width="1.3"/>
<path d="M512.94 272.5L32.0581 272.5" stroke="black" stroke-opacity="0.3" stroke-width="1.3"/>
<path d="M512.94 311.359L32.0581 311.359" stroke="black" stroke-opacity="0.3" stroke-width="1.3"/>
<path d="M512.94 350.218L32.0581 350.218" stroke="black" stroke-opacity="0.3" stroke-width="1.3"/>
<path d="M512.94 389.078L32.0581 389.078" stroke="black" stroke-opacity="0.3" stroke-width="1.3"/>
<path d="M512.94 427.937L32.0581 427.937" stroke="black" stroke-opacity="0.3" stroke-width="1.3"/>
<path d="M512.94 466.796L32.0581 466.796" stroke="black" stroke-opacity="0.3" stroke-width="1.3"/>
</g>
<path d="M273.021 78V142.779" stroke="#FFF100" stroke-width="2"/>
<path d="M273.021 401.418V466.197" stroke="#FFF100" stroke-width="2"/>
<path d="M464.779 272.674L400 272.674" stroke="#FFF100" stroke-width="2"/>
<path d="M143.779 272.674L78.9999 272.674" stroke="#FFF100" stroke-width="2"/>
<defs>
<linearGradient id="paint0_linear_26_256" x1="272.5" y1="545" x2="272.5" y2="0" gradientUnits="userSpaceOnUse">
<stop stop-color="#C4C4C4"/>
<stop offset="1" stop-color="#F1F1F1"/>
</linearGradient>
<linearGradient id="paint1_linear_26_256" x1="272.499" y1="504.926" x2="272.499" y2="40.0733" gradientUnits="userSpaceOnUse">
<stop stop-color="#C4C4C4"/>
<stop offset="1" stop-color="#F1F1F1"/>
</linearGradient>
</defs>
</svg>
