<svg width="320" height="258" viewBox="0 0 320 258" fill="none" xmlns="http://www.w3.org/2000/svg">
<path d="M281.997 0L-10 72.6313L3.11441 225.547L350 258L281.997 0Z" fill="#C81413"/>
<path d="M58.8691 109.36C57.6291 109.36 56.4791 109.34 55.4191 109.3C54.3591 109.26 52.9091 109.17 51.0691 109.03V88.36H61.3891C62.8491 88.36 64.1591 88.57 65.3191 88.99C66.4991 89.39 67.4191 89.97 68.0791 90.73C68.7391 91.49 69.0691 92.37 69.0691 93.37C69.0691 94.61 68.7991 95.59 68.2591 96.31C67.7191 97.01 66.8991 97.5 65.7991 97.78C68.5991 98.22 69.9991 99.87 69.9991 102.73C69.9991 104.71 69.0891 106.31 67.2691 107.53C65.4691 108.75 62.6691 109.36 58.8691 109.36ZM60.1291 96.52C60.9091 96.52 61.5491 96.33 62.0491 95.95C62.5691 95.57 62.8291 95.08 62.8291 94.48C62.8291 93.06 61.9491 92.35 60.1891 92.35H57.7591V96.52H60.1291ZM60.0091 104.65C61.1091 104.65 61.9491 104.45 62.5291 104.05C63.1291 103.63 63.4291 103.05 63.4291 102.31C63.4291 101.51 63.1591 100.9 62.6191 100.48C62.0791 100.04 61.3091 99.82 60.3091 99.82H57.7291V104.56C58.6291 104.62 59.3891 104.65 60.0091 104.65ZM72.6902 88.36H87.1802V92.92H79.9802V96.67H86.5502V100.45H79.9802V104.44H87.1802V109H72.6902V88.36ZM90.532 88.36H96.562L104.782 99.49V88.36H110.152V109H104.152L95.872 98.26V109H90.532V88.36ZM114.057 88.36H128.547V92.92H121.347V96.67H127.917V100.45H121.347V104.44H128.547V109H114.057V88.36ZM131.899 88.36H146.119V92.92H138.349V97.09H145.549V100.87H138.349V109H131.899V88.36ZM149.009 88.36H155.939V109H149.009V88.36ZM148.829 82.9L157.619 76.75L160.649 82.12L150.659 86.11L148.829 82.9ZM169.568 109.48C167.568 109.48 165.748 109.01 164.108 108.07C162.488 107.11 161.198 105.81 160.238 104.17C159.298 102.51 158.828 100.68 158.828 98.68C158.828 96.64 159.288 94.8 160.208 93.16C161.128 91.52 162.388 90.24 163.988 89.32C165.588 88.38 167.388 87.91 169.388 87.91C170.468 87.91 171.528 88.04 172.568 88.3C173.608 88.56 174.498 88.93 175.238 89.41L174.428 94.06C172.988 93.52 171.688 93.25 170.528 93.25C168.928 93.25 167.698 93.72 166.838 94.66C165.978 95.58 165.548 96.91 165.548 98.65C165.548 100.35 165.998 101.68 166.898 102.64C167.818 103.58 169.088 104.05 170.708 104.05C171.328 104.05 171.908 103.99 172.448 103.87C172.988 103.75 173.648 103.53 174.428 103.21L175.268 107.95C173.528 108.97 171.628 109.48 169.568 109.48ZM177.954 88.36H184.884V109H177.954V88.36ZM198.814 109.48C196.654 109.48 194.734 109.02 193.054 108.1C191.394 107.18 190.094 105.91 189.154 104.29C188.234 102.65 187.774 100.79 187.774 98.71C187.774 96.61 188.234 94.74 189.154 93.1C190.094 91.46 191.394 90.19 193.054 89.29C194.734 88.37 196.654 87.91 198.814 87.91C200.974 87.91 202.884 88.37 204.544 89.29C206.224 90.19 207.524 91.46 208.444 93.1C209.384 94.72 209.854 96.59 209.854 98.71C209.854 100.79 209.384 102.65 208.444 104.29C207.524 105.91 206.224 107.18 204.544 108.1C202.864 109.02 200.954 109.48 198.814 109.48ZM198.814 104.02C200.074 104.02 201.104 103.53 201.904 102.55C202.724 101.57 203.134 100.28 203.134 98.68C203.134 97.62 202.944 96.68 202.564 95.86C202.204 95.02 201.694 94.37 201.034 93.91C200.374 93.43 199.624 93.19 198.784 93.19C197.964 93.19 197.224 93.43 196.564 93.91C195.904 94.37 195.394 95.02 195.034 95.86C194.674 96.68 194.494 97.62 194.494 98.68C194.494 100.28 194.894 101.57 195.694 102.55C196.494 103.53 197.534 104.02 198.814 104.02ZM219.119 109.48C216.299 109.48 213.919 108.96 211.979 107.92L213.479 103.27C215.539 104.01 217.379 104.38 218.999 104.38C219.879 104.38 220.519 104.28 220.919 104.08C221.339 103.86 221.549 103.54 221.549 103.12C221.549 102.84 221.439 102.6 221.219 102.4C220.999 102.18 220.559 101.94 219.899 101.68C219.239 101.42 218.249 101.1 216.929 100.72C215.309 100.24 214.049 99.46 213.149 98.38C212.249 97.28 211.799 96.02 211.799 94.6C211.799 92.4 212.519 90.74 213.959 89.62C215.419 88.48 217.379 87.91 219.839 87.91C221.119 87.91 222.379 88.05 223.619 88.33C224.859 88.59 225.959 88.98 226.919 89.5L225.299 94.03C224.179 93.65 223.199 93.38 222.359 93.22C221.539 93.04 220.739 92.95 219.959 92.95C218.639 92.95 217.979 93.31 217.979 94.03C217.979 94.39 218.189 94.7 218.609 94.96C219.049 95.2 219.939 95.51 221.279 95.89C223.379 96.45 224.969 97.31 226.049 98.47C227.129 99.61 227.669 100.98 227.669 102.58C227.669 104.8 226.949 106.51 225.509 107.71C224.069 108.89 221.939 109.48 219.119 109.48ZM236.079 88.36H245.049C247.209 88.36 249.119 88.79 250.779 89.65C252.459 90.51 253.759 91.71 254.679 93.25C255.619 94.79 256.089 96.55 256.089 98.53C256.089 100.61 255.629 102.44 254.709 104.02C253.809 105.6 252.519 106.83 250.839 107.71C249.179 108.57 247.249 109 245.049 109H236.079V88.36ZM244.749 103.6C246.249 103.6 247.389 103.13 248.169 102.19C248.969 101.23 249.369 99.99 249.369 98.47C249.369 97.03 248.979 95.89 248.199 95.05C247.439 94.19 246.289 93.76 244.749 93.76H242.709V103.6H244.749ZM258.989 88.36H273.479V92.92H266.279V96.67H272.849V100.45H266.279V104.44H273.479V109H258.989V88.36ZM75.2996 134.92H71.0096V130.36H86.5796V134.92H82.2896V151H75.2996V134.92ZM105.034 151.48C101.274 151.48 98.9741 149.74 98.1341 146.26L97.3841 143.17H95.9741V151H89.4041V130.36H98.4941C100.214 130.36 101.724 130.62 103.024 131.14C104.344 131.64 105.364 132.35 106.084 133.27C106.804 134.19 107.164 135.25 107.164 136.45C107.164 137.79 106.834 138.92 106.174 139.84C105.534 140.74 104.534 141.48 103.174 142.06C103.314 142.82 103.474 143.51 103.654 144.13C103.894 144.89 104.224 145.42 104.644 145.72C105.064 146.02 105.674 146.17 106.474 146.17C106.754 146.17 107.194 146.13 107.794 146.05V150.94C106.854 151.3 105.934 151.48 105.034 151.48ZM97.1141 138.97C98.5941 138.97 99.6341 138.81 100.234 138.49C100.854 138.15 101.164 137.58 101.164 136.78C101.164 136.1 100.914 135.61 100.414 135.31C99.9141 134.99 99.1241 134.83 98.0441 134.83H95.9741V138.97H97.1141ZM114.251 130.36H123.371L129.341 151H122.291L121.511 147.04H116.171L115.301 151H108.551L114.251 130.36ZM120.791 143.35L118.841 134.32L116.801 143.35H120.791ZM139.128 151.36C137.888 151.36 136.738 151.34 135.678 151.3C134.618 151.26 133.168 151.17 131.328 151.03V130.36H141.648C143.108 130.36 144.418 130.57 145.578 130.99C146.758 131.39 147.678 131.97 148.338 132.73C148.998 133.49 149.328 134.37 149.328 135.37C149.328 136.61 149.058 137.59 148.518 138.31C147.978 139.01 147.158 139.5 146.058 139.78C148.858 140.22 150.258 141.87 150.258 144.73C150.258 146.71 149.348 148.31 147.528 149.53C145.728 150.75 142.928 151.36 139.128 151.36ZM140.388 138.52C141.168 138.52 141.808 138.33 142.308 137.95C142.828 137.57 143.088 137.08 143.088 136.48C143.088 135.06 142.208 134.35 140.448 134.35H138.018V138.52H140.388ZM140.268 146.65C141.368 146.65 142.208 146.45 142.788 146.05C143.388 145.63 143.688 145.05 143.688 144.31C143.688 143.51 143.418 142.9 142.878 142.48C142.338 142.04 141.568 141.82 140.568 141.82H137.988V146.56C138.888 146.62 139.648 146.65 140.268 146.65ZM156.849 130.36H165.969L171.939 151H164.889L164.109 147.04H158.769L157.899 151H151.149L156.849 130.36ZM163.389 143.35L161.439 134.32L159.399 143.35H163.389ZM173.926 130.36H180.406V146.44H187.576V151H173.926V130.36ZM190.068 130.36H196.818V138.58H203.208V130.36H209.988V151H203.208V142.9H196.818V151H190.068V130.36ZM217.787 130.36H226.907L232.877 151H225.827L225.047 147.04H219.707L218.837 151H212.087L217.787 130.36ZM224.327 143.35L222.377 134.32L220.337 143.35H224.327ZM250.493 151.48C246.733 151.48 244.433 149.74 243.593 146.26L242.843 143.17H241.433V151H234.863V130.36H243.953C245.673 130.36 247.183 130.62 248.483 131.14C249.803 131.64 250.823 132.35 251.543 133.27C252.263 134.19 252.623 135.25 252.623 136.45C252.623 137.79 252.293 138.92 251.633 139.84C250.993 140.74 249.993 141.48 248.633 142.06C248.773 142.82 248.933 143.51 249.113 144.13C249.353 144.89 249.683 145.42 250.103 145.72C250.523 146.02 251.133 146.17 251.933 146.17C252.213 146.17 252.653 146.13 253.253 146.05V150.94C252.313 151.3 251.393 151.48 250.493 151.48ZM242.573 138.97C244.053 138.97 245.093 138.81 245.693 138.49C246.313 138.15 246.623 137.58 246.623 136.78C246.623 136.1 246.373 135.61 245.873 135.31C245.373 134.99 244.583 134.83 243.503 134.83H241.433V138.97H242.573ZM75.3057 193.48C73.3057 193.48 71.4857 193.01 69.8457 192.07C68.2257 191.11 66.9357 189.81 65.9757 188.17C65.0357 186.51 64.5657 184.68 64.5657 182.68C64.5657 180.64 65.0257 178.8 65.9457 177.16C66.8657 175.52 68.1257 174.24 69.7257 173.32C71.3257 172.38 73.1257 171.91 75.1257 171.91C76.2057 171.91 77.2657 172.04 78.3057 172.3C79.3457 172.56 80.2357 172.93 80.9757 173.41L80.1657 178.06C78.7257 177.52 77.4257 177.25 76.2657 177.25C74.6657 177.25 73.4357 177.72 72.5757 178.66C71.7157 179.58 71.2857 180.91 71.2857 182.65C71.2857 184.35 71.7357 185.68 72.6357 186.64C73.5557 187.58 74.8257 188.05 76.4457 188.05C77.0657 188.05 77.6457 187.99 78.1857 187.87C78.7257 187.75 79.3857 187.53 80.1657 187.21L81.0057 191.95C79.2657 192.97 77.3657 193.48 75.3057 193.48ZM93.3304 193.48C91.1704 193.48 89.2504 193.02 87.5704 192.1C85.9104 191.18 84.6104 189.91 83.6704 188.29C82.7504 186.65 82.2904 184.79 82.2904 182.71C82.2904 180.61 82.7504 178.74 83.6704 177.1C84.6104 175.46 85.9104 174.19 87.5704 173.29C89.2504 172.37 91.1704 171.91 93.3304 171.91C95.4904 171.91 97.4004 172.37 99.0604 173.29C100.74 174.19 102.04 175.46 102.96 177.1C103.9 178.72 104.37 180.59 104.37 182.71C104.37 184.79 103.9 186.65 102.96 188.29C102.04 189.91 100.74 191.18 99.0604 192.1C97.3804 193.02 95.4704 193.48 93.3304 193.48ZM93.3304 188.02C94.5904 188.02 95.6204 187.53 96.4204 186.55C97.2404 185.57 97.6504 184.28 97.6504 182.68C97.6504 181.62 97.4604 180.68 97.0804 179.86C96.7204 179.02 96.2104 178.37 95.5504 177.91C94.8904 177.43 94.1404 177.19 93.3004 177.19C92.4804 177.19 91.7404 177.43 91.0804 177.91C90.4204 178.37 89.9104 179.02 89.5504 179.86C89.1904 180.68 89.0104 181.62 89.0104 182.68C89.0104 184.28 89.4104 185.57 90.2104 186.55C91.0104 187.53 92.0504 188.02 93.3304 188.02ZM107.246 172.36H113.486L118.646 182.38L123.686 172.36H129.926V193H123.686V181.99L119.876 189.19H117.326L113.486 181.99V193H107.246V172.36ZM143.343 172.36H152.463L158.433 193H151.383L150.603 189.04H145.263L144.393 193H137.643L143.343 172.36ZM149.883 185.35L147.933 176.32L145.893 185.35H149.883ZM175.615 193.48C173.595 193.48 171.775 193 170.155 192.04C168.535 191.06 167.265 189.73 166.345 188.05C165.425 186.37 164.965 184.52 164.965 182.5C164.965 180.56 165.425 178.78 166.345 177.16C167.285 175.54 168.585 174.26 170.245 173.32C171.905 172.38 173.795 171.91 175.915 171.91C177.075 171.91 178.195 172.04 179.275 172.3C180.375 172.56 181.365 172.93 182.245 173.41L180.265 178.06C178.905 177.5 177.635 177.22 176.455 177.22C174.915 177.22 173.725 177.72 172.885 178.72C172.045 179.7 171.625 180.99 171.625 182.59C171.625 183.63 171.815 184.57 172.195 185.41C172.575 186.23 173.105 186.88 173.785 187.36C174.485 187.84 175.275 188.08 176.155 188.08C176.635 188.08 177.035 188.04 177.355 187.96V183.13L182.545 182.53V191.92C180.285 192.96 177.975 193.48 175.615 193.48ZM185.791 172.36H200.281V176.92H193.081V180.67H199.651V184.45H193.081V188.44H200.281V193H185.791V172.36ZM203.633 172.36H209.663L217.883 183.49V172.36H223.253V193H217.253L208.973 182.26V193H203.633V172.36ZM230.368 176.92H226.078V172.36H241.648V176.92H237.358V193H230.368V176.92ZM244.472 172.36H258.962V176.92H251.762V180.67H258.332V184.45H251.762V188.44H258.962V193H244.472V172.36Z" fill="#F1F1F1"/>
</svg>
