<svg width="542" height="388" viewBox="0 0 542 388" fill="none" xmlns="http://www.w3.org/2000/svg">
<path d="M439.618 0L0 109.228L19.7445 339.195L542 388L439.618 0Z" fill="#C81413"/>
<path d="M166.75 174.36C165.51 174.36 164.36 174.34 163.3 174.3C162.24 174.26 160.79 174.17 158.95 174.03V153.36H169.27C170.73 153.36 172.04 153.57 173.2 153.99C174.38 154.39 175.3 154.97 175.96 155.73C176.62 156.49 176.95 157.37 176.95 158.37C176.95 159.61 176.68 160.59 176.14 161.31C175.6 162.01 174.78 162.5 173.68 162.78C176.48 163.22 177.88 164.87 177.88 167.73C177.88 169.71 176.97 171.31 175.15 172.53C173.35 173.75 170.55 174.36 166.75 174.36ZM168.01 161.52C168.79 161.52 169.43 161.33 169.93 160.95C170.45 160.57 170.71 160.08 170.71 159.48C170.71 158.06 169.83 157.35 168.07 157.35H165.64V161.52H168.01ZM167.89 169.65C168.99 169.65 169.83 169.45 170.41 169.05C171.01 168.63 171.31 168.05 171.31 167.31C171.31 166.51 171.04 165.9 170.5 165.48C169.96 165.04 169.19 164.82 168.19 164.82H165.61V169.56C166.51 169.62 167.27 169.65 167.89 169.65ZM180.571 153.36H195.061V157.92H187.861V161.67H194.431V165.45H187.861V169.44H195.061V174H180.571V153.36ZM198.413 153.36H204.443L212.663 164.49V153.36H218.033V174H212.033L203.753 163.26V174H198.413V153.36ZM221.938 153.36H236.428V157.92H229.228V161.67H235.798V165.45H229.228V169.44H236.428V174H221.938V153.36ZM239.78 153.36H254V157.92H246.23V162.09H253.43V165.87H246.23V174H239.78V153.36ZM256.889 153.36H263.819V174H256.889V153.36ZM256.709 147.9L265.499 141.75L268.529 147.12L258.539 151.11L256.709 147.9ZM277.449 174.48C275.449 174.48 273.629 174.01 271.989 173.07C270.369 172.11 269.079 170.81 268.119 169.17C267.179 167.51 266.709 165.68 266.709 163.68C266.709 161.64 267.169 159.8 268.089 158.16C269.009 156.52 270.269 155.24 271.869 154.32C273.469 153.38 275.269 152.91 277.269 152.91C278.349 152.91 279.409 153.04 280.449 153.3C281.489 153.56 282.379 153.93 283.119 154.41L282.309 159.06C280.869 158.52 279.569 158.25 278.409 158.25C276.809 158.25 275.579 158.72 274.719 159.66C273.859 160.58 273.429 161.91 273.429 163.65C273.429 165.35 273.879 166.68 274.779 167.64C275.699 168.58 276.969 169.05 278.589 169.05C279.209 169.05 279.789 168.99 280.329 168.87C280.869 168.75 281.529 168.53 282.309 168.21L283.149 172.95C281.409 173.97 279.509 174.48 277.449 174.48ZM285.835 153.36H292.765V174H285.835V153.36ZM306.695 174.48C304.535 174.48 302.615 174.02 300.935 173.1C299.275 172.18 297.975 170.91 297.035 169.29C296.115 167.65 295.655 165.79 295.655 163.71C295.655 161.61 296.115 159.74 297.035 158.1C297.975 156.46 299.275 155.19 300.935 154.29C302.615 153.37 304.535 152.91 306.695 152.91C308.855 152.91 310.765 153.37 312.425 154.29C314.105 155.19 315.405 156.46 316.325 158.1C317.265 159.72 317.735 161.59 317.735 163.71C317.735 165.79 317.265 167.65 316.325 169.29C315.405 170.91 314.105 172.18 312.425 173.1C310.745 174.02 308.835 174.48 306.695 174.48ZM306.695 169.02C307.955 169.02 308.985 168.53 309.785 167.55C310.605 166.57 311.015 165.28 311.015 163.68C311.015 162.62 310.825 161.68 310.445 160.86C310.085 160.02 309.575 159.37 308.915 158.91C308.255 158.43 307.505 158.19 306.665 158.19C305.845 158.19 305.105 158.43 304.445 158.91C303.785 159.37 303.275 160.02 302.915 160.86C302.555 161.68 302.375 162.62 302.375 163.68C302.375 165.28 302.775 166.57 303.575 167.55C304.375 168.53 305.415 169.02 306.695 169.02ZM327 174.48C324.18 174.48 321.8 173.96 319.86 172.92L321.36 168.27C323.42 169.01 325.26 169.38 326.88 169.38C327.76 169.38 328.4 169.28 328.8 169.08C329.22 168.86 329.43 168.54 329.43 168.12C329.43 167.84 329.32 167.6 329.1 167.4C328.88 167.18 328.44 166.94 327.78 166.68C327.12 166.42 326.13 166.1 324.81 165.72C323.19 165.24 321.93 164.46 321.03 163.38C320.13 162.28 319.68 161.02 319.68 159.6C319.68 157.4 320.4 155.74 321.84 154.62C323.3 153.48 325.26 152.91 327.72 152.91C329 152.91 330.26 153.05 331.5 153.33C332.74 153.59 333.84 153.98 334.8 154.5L333.18 159.03C332.06 158.65 331.08 158.38 330.24 158.22C329.42 158.04 328.62 157.95 327.84 157.95C326.52 157.95 325.86 158.31 325.86 159.03C325.86 159.39 326.07 159.7 326.49 159.96C326.93 160.2 327.82 160.51 329.16 160.89C331.26 161.45 332.85 162.31 333.93 163.47C335.01 164.61 335.55 165.98 335.55 167.58C335.55 169.8 334.83 171.51 333.39 172.71C331.95 173.89 329.82 174.48 327 174.48ZM343.96 153.36H352.93C355.09 153.36 357 153.79 358.66 154.65C360.34 155.51 361.64 156.71 362.56 158.25C363.5 159.79 363.97 161.55 363.97 163.53C363.97 165.61 363.51 167.44 362.59 169.02C361.69 170.6 360.4 171.83 358.72 172.71C357.06 173.57 355.13 174 352.93 174H343.96V153.36ZM352.63 168.6C354.13 168.6 355.27 168.13 356.05 167.19C356.85 166.23 357.25 164.99 357.25 163.47C357.25 162.03 356.86 160.89 356.08 160.05C355.32 159.19 354.17 158.76 352.63 158.76H350.59V168.6H352.63ZM366.87 153.36H381.36V157.92H374.16V161.67H380.73V165.45H374.16V169.44H381.36V174H366.87V153.36ZM162.16 199.92H157.87V195.36H173.44V199.92H169.15V216H162.16V199.92ZM191.894 216.48C188.134 216.48 185.834 214.74 184.994 211.26L184.244 208.17H182.834V216H176.264V195.36H185.354C187.074 195.36 188.584 195.62 189.884 196.14C191.204 196.64 192.224 197.35 192.944 198.27C193.664 199.19 194.024 200.25 194.024 201.45C194.024 202.79 193.694 203.92 193.034 204.84C192.394 205.74 191.394 206.48 190.034 207.06C190.174 207.82 190.334 208.51 190.514 209.13C190.754 209.89 191.084 210.42 191.504 210.72C191.924 211.02 192.534 211.17 193.334 211.17C193.614 211.17 194.054 211.13 194.654 211.05V215.94C193.714 216.3 192.794 216.48 191.894 216.48ZM183.974 203.97C185.454 203.97 186.494 203.81 187.094 203.49C187.714 203.15 188.024 202.58 188.024 201.78C188.024 201.1 187.774 200.61 187.274 200.31C186.774 199.99 185.984 199.83 184.904 199.83H182.834V203.97H183.974ZM201.112 195.36H210.232L216.202 216H209.152L208.372 212.04H203.032L202.162 216H195.412L201.112 195.36ZM207.652 208.35L205.702 199.32L203.662 208.35H207.652ZM225.988 216.36C224.748 216.36 223.598 216.34 222.538 216.3C221.478 216.26 220.028 216.17 218.188 216.03V195.36H228.508C229.968 195.36 231.278 195.57 232.438 195.99C233.618 196.39 234.538 196.97 235.198 197.73C235.858 198.49 236.188 199.37 236.188 200.37C236.188 201.61 235.918 202.59 235.378 203.31C234.838 204.01 234.018 204.5 232.918 204.78C235.718 205.22 237.118 206.87 237.118 209.73C237.118 211.71 236.208 213.31 234.388 214.53C232.588 215.75 229.788 216.36 225.988 216.36ZM227.248 203.52C228.028 203.52 228.668 203.33 229.168 202.95C229.688 202.57 229.948 202.08 229.948 201.48C229.948 200.06 229.068 199.35 227.308 199.35H224.878V203.52H227.248ZM227.128 211.65C228.228 211.65 229.068 211.45 229.648 211.05C230.248 210.63 230.548 210.05 230.548 209.31C230.548 208.51 230.278 207.9 229.738 207.48C229.198 207.04 228.428 206.82 227.428 206.82H224.848V211.56C225.748 211.62 226.508 211.65 227.128 211.65ZM243.709 195.36H252.829L258.799 216H251.749L250.969 212.04H245.629L244.759 216H238.009L243.709 195.36ZM250.249 208.35L248.299 199.32L246.259 208.35H250.249ZM260.786 195.36H267.266V211.44H274.436V216H260.786V195.36ZM276.929 195.36H283.679V203.58H290.069V195.36H296.849V216H290.069V207.9H283.679V216H276.929V195.36ZM304.647 195.36H313.767L319.737 216H312.687L311.907 212.04H306.567L305.697 216H298.947L304.647 195.36ZM311.187 208.35L309.237 199.32L307.197 208.35H311.187ZM337.353 216.48C333.593 216.48 331.293 214.74 330.453 211.26L329.703 208.17H328.293V216H321.723V195.36H330.813C332.533 195.36 334.043 195.62 335.343 196.14C336.663 196.64 337.683 197.35 338.403 198.27C339.123 199.19 339.483 200.25 339.483 201.45C339.483 202.79 339.153 203.92 338.493 204.84C337.853 205.74 336.853 206.48 335.493 207.06C335.633 207.82 335.793 208.51 335.973 209.13C336.213 209.89 336.543 210.42 336.963 210.72C337.383 211.02 337.993 211.17 338.793 211.17C339.073 211.17 339.513 211.13 340.113 211.05V215.94C339.173 216.3 338.253 216.48 337.353 216.48ZM329.433 203.97C330.913 203.97 331.953 203.81 332.553 203.49C333.173 203.15 333.483 202.58 333.483 201.78C333.483 201.1 333.233 200.61 332.733 200.31C332.233 199.99 331.443 199.83 330.363 199.83H328.293V203.97H329.433ZM168.67 258.48C166.67 258.48 164.85 258.01 163.21 257.07C161.59 256.11 160.3 254.81 159.34 253.17C158.4 251.51 157.93 249.68 157.93 247.68C157.93 245.64 158.39 243.8 159.31 242.16C160.23 240.52 161.49 239.24 163.09 238.32C164.69 237.38 166.49 236.91 168.49 236.91C169.57 236.91 170.63 237.04 171.67 237.3C172.71 237.56 173.6 237.93 174.34 238.41L173.53 243.06C172.09 242.52 170.79 242.25 169.63 242.25C168.03 242.25 166.8 242.72 165.94 243.66C165.08 244.58 164.65 245.91 164.65 247.65C164.65 249.35 165.1 250.68 166 251.64C166.92 252.58 168.19 253.05 169.81 253.05C170.43 253.05 171.01 252.99 171.55 252.87C172.09 252.75 172.75 252.53 173.53 252.21L174.37 256.95C172.63 257.97 170.73 258.48 168.67 258.48ZM186.695 258.48C184.535 258.48 182.615 258.02 180.935 257.1C179.275 256.18 177.975 254.91 177.035 253.29C176.115 251.65 175.655 249.79 175.655 247.71C175.655 245.61 176.115 243.74 177.035 242.1C177.975 240.46 179.275 239.19 180.935 238.29C182.615 237.37 184.535 236.91 186.695 236.91C188.855 236.91 190.765 237.37 192.425 238.29C194.105 239.19 195.405 240.46 196.325 242.1C197.265 243.72 197.735 245.59 197.735 247.71C197.735 249.79 197.265 251.65 196.325 253.29C195.405 254.91 194.105 256.18 192.425 257.1C190.745 258.02 188.835 258.48 186.695 258.48ZM186.695 253.02C187.955 253.02 188.985 252.53 189.785 251.55C190.605 250.57 191.015 249.28 191.015 247.68C191.015 246.62 190.825 245.68 190.445 244.86C190.085 244.02 189.575 243.37 188.915 242.91C188.255 242.43 187.505 242.19 186.665 242.19C185.845 242.19 185.105 242.43 184.445 242.91C183.785 243.37 183.275 244.02 182.915 244.86C182.555 245.68 182.375 246.62 182.375 247.68C182.375 249.28 182.775 250.57 183.575 251.55C184.375 252.53 185.415 253.02 186.695 253.02ZM200.61 237.36H206.85L212.01 247.38L217.05 237.36H223.29V258H217.05V246.99L213.24 254.19H210.69L206.85 246.99V258H200.61V237.36ZM236.707 237.36H245.827L251.797 258H244.747L243.967 254.04H238.627L237.757 258H231.007L236.707 237.36ZM243.247 250.35L241.297 241.32L239.257 250.35H243.247ZM268.98 258.48C266.96 258.48 265.14 258 263.52 257.04C261.9 256.06 260.63 254.73 259.71 253.05C258.79 251.37 258.33 249.52 258.33 247.5C258.33 245.56 258.79 243.78 259.71 242.16C260.65 240.54 261.95 239.26 263.61 238.32C265.27 237.38 267.16 236.91 269.28 236.91C270.44 236.91 271.56 237.04 272.64 237.3C273.74 237.56 274.73 237.93 275.61 238.41L273.63 243.06C272.27 242.5 271 242.22 269.82 242.22C268.28 242.22 267.09 242.72 266.25 243.72C265.41 244.7 264.99 245.99 264.99 247.59C264.99 248.63 265.18 249.57 265.56 250.41C265.94 251.23 266.47 251.88 267.15 252.36C267.85 252.84 268.64 253.08 269.52 253.08C270 253.08 270.4 253.04 270.72 252.96V248.13L275.91 247.53V256.92C273.65 257.96 271.34 258.48 268.98 258.48ZM279.155 237.36H293.645V241.92H286.445V245.67H293.015V249.45H286.445V253.44H293.645V258H279.155V237.36ZM296.997 237.36H303.027L311.247 248.49V237.36H316.617V258H310.617L302.337 247.26V258H296.997V237.36ZM323.732 241.92H319.442V237.36H335.012V241.92H330.722V258H323.732V241.92ZM337.837 237.36H352.327V241.92H345.127V245.67H351.697V249.45H345.127V253.44H352.327V258H337.837V237.36Z" fill="#F1F1F1"/>
</svg>
